<svg xmlns="http://www.w3.org/2000/svg" viewBox="0 0 512 512"><path d="M256 22.5c-28.95 0-52.5 23.55-52.5 52.5s23.55 52.5 52.5 52.5 52.5-23.55 52.5-52.5-23.55-52.5-52.5-52.5zm0 90c-20.68 0-37.5-16.82-37.5-37.5s16.82-37.5 37.5-37.5 37.5 16.82 37.5 37.5-16.82 37.5-37.5 37.5z"/><path d="M271 75.3c-3.52 0-6.83-1.73-8.87-4.62a7.5 7.5 0 0 0-12.26 0A10.86 10.86 0 0 1 241 75.3a7.5 7.5 0 0 0 0 15c5.44 0 10.67-1.73 15-4.81a25.85 25.85 0 0 0 15 4.8 7.5 7.5 0 1 0 0-15z"/><path d="M504.5 217.5h-44.28l6.65-72.23a30.05 30.05 0 0 0-22.37-31.82V75a7.5 7.5 0 1 0-15 0v38.45a30.05 30.05 0 0 0-22.37 31.83l6.65 72.22H338.5V200a37.55 37.55 0 0 0-30.88-36.9A27.55 27.55 0 0 0 281 142.5h-50a27.55 27.55 0 0 0-26.62 20.6A37.55 37.55 0 0 0 173.5 200v17.5H135v-31.29c8.73-3.1 15-11.43 15-21.21v-50a7.5 7.5 0 0 0-7.5-7.5h-30a7.5 7.5 0 0 0-7.5 7.5v50c0 9.78 6.27 18.11 15 21.21v31.29H75v-31.29c8.73-3.1 15-11.43 15-21.21v-50a7.5 7.5 0 0 0-7.5-7.5h-30A7.5 7.5 0 0 0 45 115v50c0 9.78 6.27 18.11 15 21.21v31.29H7.5A7.5 7.5 0 0 0 0 225v45a7.5 7.5 0 0 0 7.5 7.5H15V482a7.5 7.5 0 0 0 7.5 7.5h467a7.5 7.5 0 0 0 7.5-7.5V277.5h7.5a7.5 7.5 0 0 0 7.5-7.5v-45a7.5 7.5 0 0 0-7.5-7.5zm-67.5-90a15.02 15.02 0 0 1 14.93 16.4l-6.77 73.6h-16.32l-6.77-73.59A15.02 15.02 0 0 1 437 127.5zm-128.5 51.29c8.73 3.1 15 11.43 15 21.21v17.5h-15v-38.71zm-45-21.29H281c6.9 0 12.5 5.6 12.5 12.5v47.5h-30v-60zm-45 12.5c0-6.9 5.6-12.5 12.5-12.5h17.5v60h-30V170zm-30 30c0-9.78 6.27-18.11 15-21.21v38.71h-15V200zM120 122.5h15V165a7.5 7.5 0 0 1-15 0v-42.5zm-60 0h15V165a7.5 7.5 0 0 1-15 0v-42.5zm68.5 352h-15v-30h15v30zm-45-132V335c0-6.9 5.6-12.5 12.5-12.5h50c6.9 0 12.5 5.6 12.5 12.5v7.5h-75zm45 87h-15v-72h15v72zm135 45h-15v-30h15v30zm-45-132V335c0-6.9 5.6-12.5 12.5-12.5h50c6.9 0 12.5 5.6 12.5 12.5v7.5h-75zm45 87h-15v-72h15v72zm135 45h-15v-30h15v30zm-45-132V335c0-6.9 5.6-12.5 12.5-12.5h50c6.9 0 12.5 5.6 12.5 12.5v7.5h-75zm45 87h-15v-72h15v72zm83.5 45h-68.5v-30H436a7.5 7.5 0 1 0 0-15h-22.5v-72H436a7.5 7.5 0 0 0 7.5-7.5v-15a27.53 27.53 0 0 0-27.5-27.5h-50a27.53 27.53 0 0 0-27.5 27.5v15a7.5 7.5 0 0 0 7.5 7.5h22.5v72H346a7.5 7.5 0 1 0 0 15h22.5v30h-90v-30H301a7.5 7.5 0 1 0 0-15h-22.5v-72H301a7.5 7.5 0 0 0 7.5-7.5v-15a27.53 27.53 0 0 0-27.5-27.5h-50a27.53 27.53 0 0 0-27.5 27.5v15a7.5 7.5 0 0 0 7.5 7.5h22.5v72H211a7.5 7.5 0 0 0 0 15h22.5v30h-90v-30H166a7.5 7.5 0 0 0 0-15h-22.5v-72H166a7.5 7.5 0 0 0 7.5-7.5v-15a27.53 27.53 0 0 0-27.5-27.5H96A27.53 27.53 0 0 0 68.5 335v15a7.5 7.5 0 0 0 7.5 7.5h22.5v72H76a7.5 7.5 0 0 0 0 15h22.5v30H30v-197h452v197zm15-212H15v-30h482v30z"/></svg>