<svg xmlns="http://www.w3.org/2000/svg" viewBox="0 0 512 512"><path d="M482.73 485.78l-22.65-132.6a37.74 37.74 0 0 0-26.46-29.95l-61.09-18.43a68.08 68.08 0 0 0-47.28-59.17c1.93-2.15 3.73-4.3 5.37-6.38 14.53-18.48 22.3-38.84 24.29-52.73h4.71a22.26 22.26 0 0 0 22.23-22.23v-11.4c0-8.18-4.6-15.59-11.52-19.44v-27.4a7.5 7.5 0 0 0-15 0v30.76a46.22 46.22 0 0 0-11.02 3.36c-.8.37-1.61.75-2.41 1.19V80.94a30.3 30.3 0 0 0-30.28-30.27h-20.7a31.1 31.1 0 0 0-19.63 7l-2.03 1.66a21 21 0 0 1-26.52 0l-2.03-1.66c-5.52-4.52-12.5-7-19.63-7h-20.7a30.3 30.3 0 0 0-30.27 30.27v60.42c-.8-.44-1.61-.82-2.42-1.19a46.23 46.23 0 0 0-11.02-3.36V59.03A44.08 44.08 0 0 1 200.7 15h110.6a44.08 44.08 0 0 1 44.03 44.03V70.8a7.5 7.5 0 1 0 15 0V59.02A59.1 59.1 0 0 0 311.3 0H200.7a59.1 59.1 0 0 0-59.02 59.02v74.44a22.38 22.38 0 0 0-11.53 19.44v11.4a22.26 22.26 0 0 0 22.23 22.22h4.72c1.97 13.9 9.75 34.25 24.28 52.73 1.64 2.09 3.44 4.22 5.37 6.37a68.39 68.39 0 0 0-47.28 59.18l-61.1 18.43a37.74 37.74 0 0 0-26.45 29.95l-9.2 53.85a7.5 7.5 0 1 0 14.79 2.52l9.2-53.85a22.83 22.83 0 0 1 16-18.11l56.5-17.05v14.83c-12.95 2.38-23.97 11.28-28.5 23.6a38.03 38.03 0 0 0-2.23 10.19l-5.47 70.1a19.11 19.11 0 0 0 5.01 14.42c3.6 3.88 8.7 6.11 14 6.11h9.34a7.5 7.5 0 1 0 0-15h-9.35a4.07 4.07 0 0 1-4.04-4.37l5.46-70.1c.16-2.1.61-4.18 1.34-6.16 3.16-8.58 11.69-14.38 21.23-14.45l1.23-.01h.17c9.27 0 17.48 5.25 20.94 13.43a23 23 0 0 1 1.75 7.2l5.47 70.1a4.08 4.08 0 0 1-4.05 4.37h-9.35a7.5 7.5 0 1 0 0 15h9.35c5.3 0 10.4-2.24 13.99-6.12a19.11 19.11 0 0 0 5-14.43l-5.46-70.1c-.32-4.1-1.3-8.1-2.9-11.88-4.93-11.65-15.5-19.76-27.93-21.95v-19.3l25.77-7.78c2.35 4.94 7 15.6 16.2 38.62a6252 6252 0 0 1 32.14 82.6A9889.65 9889.65 0 0 1 248.98 484a7.5 7.5 0 0 0 14.04 0 9730.63 9730.63 0 0 1 20.93-55.25 6245.1 6245.1 0 0 1 31.85-81.85c9.22-23.04 13.87-33.72 16.22-38.66l25.77 7.77v44.29a38.85 38.85 0 0 0-31.38 38.08c0 21.39 17.4 38.79 38.8 38.79 21.38 0 38.79-17.4 38.79-38.8 0-18.8-13.44-34.5-31.21-38.04v-39.8l56.5 17.06a22.83 22.83 0 0 1 16 18.12l22.65 132.6c.38 2.2-.2 4.35-1.64 6.05a7.33 7.33 0 0 1-5.7 2.65H51.4a7.33 7.33 0 0 1-5.7-2.65 7.33 7.33 0 0 1-1.64-6.05l7.47-43.76a7.5 7.5 0 1 0-14.78-2.53l-7.48 43.76a22.4 22.4 0 0 0 4.97 18.25A22.4 22.4 0 0 0 51.4 512h409.22a22.4 22.4 0 0 0 17.15-7.97 22.4 22.4 0 0 0 4.97-18.25zm-127.3-333.7c3.99-.99 7.2-.97 7.23-.97 1.3.02 2.55-.28 3.66-.87.34.83.53 1.73.53 2.66v11.4a7.24 7.24 0 0 1-7.23 7.23h-4.2v-19.44zm-198.85 19.45h-4.2a7.24 7.24 0 0 1-7.23-7.24v-11.4c0-.92.2-1.82.53-2.65 1.11.59 2.37.89 3.66.87.06.01 3.26 0 7.24.98v19.44zm15 8.4v-19.7a10.5 10.5 0 0 0 13.53-10.09v-69.2a15.3 15.3 0 0 1 15.27-15.28h20.7c3.68 0 7.29 1.28 10.14 3.62l2.03 1.66A36.03 36.03 0 0 0 256 79.05c8.27 0 16.35-2.88 22.75-8.11l2.03-1.66a16.07 16.07 0 0 1 10.15-3.62h20.69a15.3 15.3 0 0 1 15.28 15.28v69.21a10.5 10.5 0 0 0 13.53 10.1v19.69c0 10.94-7.57 32.2-21.6 50.04a98.85 98.85 0 0 1-18.64 18.3c-11.39 8.43-26.04 14.88-44.19 14.88s-32.8-6.45-44.2-14.87a98.93 98.93 0 0 1-18.64-18.3c-14.02-17.85-21.59-39.1-21.59-50.05zm133.54 121.14L256 337.78l-49.12-36.71c4.87-6.2 7.6-14.14 7.6-21.23v-12.09c11.55 6.22 25.33 10.4 41.52 10.4s29.97-4.18 41.52-10.4v12.09c0 7.1 2.73 15.04 7.6 21.23zm-110.75-8.37a20.5 20.5 0 0 0-13.18-.5l-25.9 7.83a53.27 53.27 0 0 1 44.2-42.01v21.82c0 4.7-2.1 9.57-5.12 12.86zm20.35 60.19l-.04-.1a2233.66 2233.66 0 0 0-1.33-3.36l-1.08-2.72-.08-.19-3.21-8.04-.23-.56-.87-2.17-.32-.79-.83-2.06-.24-.6a3020.39 3020.39 0 0 0-2.4-5.87l-.58-1.42-.22-.54c-.06-.14-.1-.27-.17-.4-.86-2.11-1.68-4.1-2.47-5.96l-.01-.04-1.22-2.89-.6-1.41 42.25 31.57-17.65 7.5-.1.04-7.37 3.13-1.23-3.12zm17.89 45.9a7797.43 7797.43 0 0 0-11.18-28.81l2.8-1.2 11.43 13.3-3.05 16.72zm23.53 60.94a7.47 7.47 0 0 0-.76-1.25c-3.39-8.96-7.69-20.29-12.45-32.76l7-38.32h12.14l7 38.32a11871.8 11871.8 0 0 0-12.93 34.01zm8.74-87.33h-17.76l-8.4-9.77L256 355.3l17.29 7.34-8.4 9.77zm18.98 14.83l-4.47 11.57-3.05-16.72 11.43-13.3 2.8 1.2c-2.14 5.47-4.37 11.2-6.7 17.25zm28.72-72.05l-1.15 2.73-.15.37c-.4.93-.79 1.88-1.2 2.87l-.08.2-1.09 2.63-.2.5-.25.6-.5 1.23-.62 1.51-.2.5c-.53 1.28-1.07 2.6-1.61 3.96l-.26.63-.82 2.04-.33.8-.87 2.16-.25.62-3.16 7.92-.11.28-1.07 2.7-.2.51-1.14 2.86-.02.05-1.25 3.16-7.38-3.13-.07-.03-17.67-7.5 42.25-31.58-.6 1.41zm18.23-22.97h-.02a20.49 20.49 0 0 0-13.16.5 19.82 19.82 0 0 1-5.11-12.87v-21.83a52.85 52.85 0 0 1 44.23 42.02l-25.94-7.82zm58.2 106.17c0 13.12-10.69 23.8-23.8 23.8s-23.8-10.68-23.8-23.8c0-13.13 10.67-23.8 23.8-23.8s23.8 10.67 23.8 23.8z"/></svg>