<svg xmlns="http://www.w3.org/2000/svg" width="51.91" height="51.91"><path d="M21.37 10.71h-.7c-.83 0-1.5.61-1.5 1.37v5.8h3.69v-5.8c0-.76-.67-1.37-1.5-1.37zM31.25 10.71h-.7c-.83 0-1.5.61-1.5 1.37v5.8h3.7v-5.8c-.01-.76-.68-1.37-1.5-1.37z"/><path d="M25.96.58A25.99 25.99 0 0 0 0 26.53a25.8 25.8 0 0 0 7.56 18.31c2.88 2.9 6.46 5.1 10.33 6.37a2.5 2.5 0 0 0 1.55-4.75c-3.12-1.02-6-2.8-8.34-5.14A20.98 20.98 0 0 1 25.96 5.58a20.98 20.98 0 0 1 14.82 35.77c-1.52 1.36-5.28 4.1-7.55 4.1a3.43 3.43 0 0 1-2.73-1.15c-1.8-1.99-2.19-6.02-2.17-8.84a8.2 8.2 0 0 0 7.8-8.18V19.5H15.78v7.78a8.2 8.2 0 0 0 7.54 8.17c-.03 3.35.44 8.84 3.44 12.19a8.43 8.43 0 0 0 6.46 2.82c4.84 0 10.34-4.89 10.95-5.44l.08-.08A25.98 25.98 0 0 0 25.96.58z"/></svg>