<svg xmlns="http://www.w3.org/2000/svg" width="512" height="512"><path d="M256.02 215.28c53.9 0 95.7-60.11 95.7-111.82 0-52.78-42.93-95.72-95.7-95.72-52.8 0-95.73 42.94-95.73 95.72 0 51.7 41.8 111.82 95.73 111.82zm0-173.24a61.47 61.47 0 0 1 61.4 61.42c0 34.9-28.34 77.53-61.4 77.53-33.1 0-61.43-42.64-61.43-77.53a61.49 61.49 0 0 1 61.43-61.42z"/><path d="M404.55 327.75v-62.5c0-40.7-22.25-76.12-55.21-94.98.1 1.57.26 3.11.26 4.7 0 28.78-42.25 93.75-69.99 133.3l-11.37-55.78 12.07-12.06a3.69 3.69 0 0 0 0-5.22l-4.68-4.68a15.37 15.37 0 0 0-10.88-4.5h-17.5c-4.08 0-8 1.61-10.88 4.5l-4.68 4.68a3.7 3.7 0 0 0 0 5.22l12.07 12.06-11.38 55.78c-27.73-39.56-69.98-104.52-69.98-133.3 0-1.58.17-3.13.28-4.7-32.96 18.85-55.21 54.28-55.21 94.98v62.5c-24.66.86-44.45 21.03-44.45 45.88v84.58a46.1 46.1 0 0 0 46.04 46.05h293.87a46.1 46.1 0 0 0 46.05-46.05v-84.58c0-24.84-19.8-45.01-44.43-45.88zM414.7 458.2c0 6.48-5.26 11.75-11.76 11.75H109.06a11.75 11.75 0 0 1-11.74-11.75v-84.58c0-6.49 5.26-11.75 11.74-11.75h293.87c6.5 0 11.76 5.26 11.76 11.75v84.58z"/><path d="M197.77 390.76a38 38 0 0 1 11.54 1.74 2.98 2.98 0 0 0 3.78-2.1l2.06-8.03a2.98 2.98 0 0 0-1.92-3.56c-3.6-1.24-9.29-2.34-16.27-2.34-23.1 0-41.7 14.51-41.7 40.58 0 21.76 13.6 38.2 40.02 38.2 7.37 0 13.39-1.07 17.15-2.3a2.97 2.97 0 0 0 1.99-3.4l-1.5-7.77a2.98 2.98 0 0 0-3.7-2.31c-3.29.87-7.47 1.5-11.35 1.5-15.4 0-24.48-9.64-24.48-24.94 0-17 10.66-25.27 24.38-25.27zM243.6 421.82h25.13a2.98 2.98 0 0 0 2.98-2.98v-8.1a2.98 2.98 0 0 0-2.98-2.98H243.6v-15.87h26.83a2.98 2.98 0 0 0 2.98-2.98v-8.2a2.98 2.98 0 0 0-2.98-2.99h-41.2a2.98 2.98 0 0 0-2.98 2.98v70.44a2.98 2.98 0 0 0 2.98 2.98h42.8a2.98 2.98 0 0 0 2.98-2.98v-8.21a2.98 2.98 0 0 0-2.98-2.98h-28.43v-18.13zM320.48 376.47c-22.56 0-37.16 17.12-37.16 40.01 0 21.77 13.25 38.88 35.9 38.88 22.35 0 37.53-15.19 37.53-40.24 0-21.08-12.8-38.65-36.27-38.65zm-.34 65.18c-11.57 0-18.58-10.54-18.58-25.5 0-14.86 6.8-25.96 18.47-25.96 11.9 0 18.49 11.78 18.49 25.5 0 14.85-6.7 25.96-18.38 25.96z"/></svg>