<svg xmlns="http://www.w3.org/2000/svg" viewBox="0 0 393.92 393.92"><path d="M336.22 57.68A196.32 196.32 0 0 0 196.98 0C88.21-.01.01 88.16 0 196.94S88.16 393.9 196.94 393.92s196.97-88.16 196.98-196.94a196.97 196.97 0 0 0-57.7-139.3zm-8.2 270.28v.04c-72.35 72.4-189.68 72.43-262.08.08S-6.49 138.38 65.86 66s189.7-72.43 262.09-.08a185.32 185.32 0 0 1 54.31 131 184.72 184.72 0 0 1-54.24 131.04z"/><path d="M273.66 107.08v-.16h-49.72a9.8 9.8 0 0 0-6.48 2.44l-.48.44a9.84 9.84 0 0 0-2.88 7.12v45.96h-34.48v-45.96a9.84 9.84 0 0 0-9.67-10H120.3a9.8 9.8 0 0 0-6.48 2.44l-.48.44a9.84 9.84 0 0 0-2.88 7.12v160a9.8 9.8 0 0 0 9.84 9.8h49.48a9.84 9.84 0 0 0 9.84-9.8V227.8h34.48v49.12a9.84 9.84 0 0 0 9.84 9.96h49.72a9.8 9.8 0 0 0 9.84-9.96v-160c0-5.43-4.4-9.84-9.84-9.84zm-1.8 168.2h-46.12V222a5.84 5.84 0 0 0-5.8-5.84h-46.12a5.84 5.84 0 0 0-5.84 5.84v53.28H122.1V118.56h45.88v50.16a5.84 5.84 0 0 0 5.84 5.84h46.12a5.84 5.84 0 0 0 5.8-5.84v-50.16h46.12v156.72z"/><path d="M314.7 79.2a165.92 165.92 0 0 0-117.72-48.72c-91.92.03-166.41 74.58-166.38 166.5.03 91.92 74.58 166.41 166.5 166.38 91.92-.03 166.41-74.58 166.38-166.5A166.44 166.44 0 0 0 314.7 79.2zm-8.24 227.2v.08c-60.45 60.49-158.49 60.51-218.97.06C27 246.1 26.97 148.05 87.42 87.57c60.45-60.49 158.5-60.52 218.98-.07a154.84 154.84 0 0 1 45.38 109.42 154.36 154.36 0 0 1-45.32 109.48z"/></svg>