<svg xmlns="http://www.w3.org/2000/svg" viewBox="0 0 512 512"><path d="M248.34 50A29.88 29.88 0 0 0 256 30c0-16.54-13.46-30-30-30s-30 13.46-30 30c0 7.68 2.9 14.69 7.67 20a52.56 52.56 0 0 0-30.17 47.5A52.56 52.56 0 0 0 226 150a52.56 52.56 0 0 0 52.5-52.5A52.56 52.56 0 0 0 248.34 50zM226 15c8.27 0 15 6.73 15 15s-6.73 15-15 15-15-6.73-15-15 6.73-15 15-15zm0 120c-20.68 0-37.5-16.82-37.5-37.5S205.32 60 226 60s37.5 16.82 37.5 37.5S246.68 135 226 135z"/><path d="M241 97.8c-3.52 0-6.83-1.73-8.86-4.62a7.5 7.5 0 0 0-12.27 0A10.86 10.86 0 0 1 211 97.8a7.5 7.5 0 1 0 0 15c5.44 0 10.67-1.73 15-4.81a25.85 25.85 0 0 0 15 4.8 7.5 7.5 0 1 0 0-15zM431.8 261l-48.3-27.84v-4.45c8.73-3.1 15-11.43 15-21.21 0-12.4-10.1-22.5-22.5-22.5h-83.55A27.54 27.54 0 0 0 266 165h-9.16a7.55 7.55 0 0 0-1.24 0h-58.67a7.49 7.49 0 0 0-1.31 0H186a27.54 27.54 0 0 0-26.37 19.73c-42.52-3.27-76.13-38.89-76.13-82.23a7.5 7.5 0 1 0-15 0c0 51.24 39.73 93.37 90 97.21V322.5a7.5 7.5 0 0 0 7.5 7.5c6.83 0 13.23-1.84 18.75-5.04a52.6 52.6 0 0 0 3.75 4.27V489.1l-24.87 8.3a7.5 7.5 0 1 0 4.74 14.23l30-10a7.5 7.5 0 0 0 5.13-7.12V339.92a52.4 52.4 0 0 0 45 0V494.5a7.5 7.5 0 0 0 5.13 7.12l30 10a7.5 7.5 0 1 0 4.74-14.24l-24.87-8.29V329.23a52.44 52.44 0 0 0 3.75-4.27A37.25 37.25 0 0 0 286 330a7.5 7.5 0 0 0 7.5-7.5V200H376a7.5 7.5 0 0 1 0 15 7.5 7.5 0 0 0-7.5 7.5v10.67L320.2 261c-7.32 4.22-11.69 11.6-11.69 19.73 0 12.4 10.1 22.5 22.5 22.5h7.5V432.5a7.5 7.5 0 0 0 7.5 7.5h60a7.5 7.5 0 0 0 7.5-7.5V303.24h7.5c12.4 0 22.5-10.1 22.5-22.5 0-8.15-4.37-15.53-11.7-19.74zm-243.3 31.5c0 9.78-6.27 18.12-15 21.21V192.5c0-6.9 5.6-12.5 12.5-12.5h2.5v112.5zM243.43 180l-17.41 31.03L208.95 180h34.48zm5.07 21.6V285h-15v-56.66l15-26.73zm-45-.39l15 27.28V285h-15v-83.79zM226 330a37.54 37.54 0 0 1-30-15.02 37.34 37.34 0 0 0 6.75-14.98h46.5a37.34 37.34 0 0 0 6.76 14.98A37.54 37.54 0 0 1 226 330zm52.5-16.29a22.54 22.54 0 0 1-15-21.21V180h2.5c6.9 0 12.5 5.6 12.5 12.5v121.21zM398.5 425h-45v-30h45v30zm0-45h-45v-84.26a7.5 7.5 0 0 1 7.5-7.5h30a7.5 7.5 0 0 1 7.5 7.5V380zm22.5-91.76h-8.79a22.54 22.54 0 0 0-21.2-15h-30a22.54 22.54 0 0 0-21.22 15H331a7.5 7.5 0 0 1-7.5-7.5c0-2.7 1.57-5.23 4.19-6.74L376 246.16 424.32 274c2.62 1.5 4.18 4.02 4.18 6.74a7.5 7.5 0 0 1-7.5 7.5z"/></svg>