<svg xmlns="http://www.w3.org/2000/svg" viewBox="0 0 480.83 480.83"><path d="M472 428.42h-48.8l-11.85-112.55 13.11 19.67 3.25 16.26a26.76 26.76 0 0 0 13.53 18.33 26.73 26.73 0 0 0 22.74 1.32 26.9 26.9 0 0 0 15.1-15.37 26.9 26.9 0 0 0-1.07-21.53l-6.85-13.7c-.02-.06-.07-.09-.1-.14l-.04-.12-48-88a8.05 8.05 0 0 0-4.04-3.6l-21.68-8.67a71.9 71.9 0 0 0 26.7-55.9 71.82 71.82 0 0 0-9.02-34.56l-4.12-41.3C423.74 83.12 432 72.4 432 60.43c0-17.23-17.1-31.32-38.42-31.98A47.95 47.95 0 0 0 352 4.42a47.95 47.95 0 0 0-41.58 24.02C289.1 29.1 272 43.19 272 60.42c0 11.98 8.26 22.7 21.14 28.15l-4.12 41.3a71.82 71.82 0 0 0-9.02 34.55 71.85 71.85 0 0 0 26.71 55.9l-21.68 8.66a8 8 0 0 0-3.27 2.44l-27 33.75-32.62-26.1-8.72-14.52a30.25 30.25 0 0 0-5.4-6.48v-21.65a23.97 23.97 0 0 0-16-22.53v-33.47h8c13.23 0 24-10.77 24-24v-48c0-13.24-10.77-24-24-24h-32c-13.24 0-24 10.76-24 24v48c0 13.23 10.76 24 24 24h8v33.47a23.97 23.97 0 0 0-16 22.53v32.03a29.9 29.9 0 0 0-2.25 15.26 29.93 29.93 0 0 0 14.37 22.12l15.14 9.08 53.18 46.54a23.9 23.9 0 0 0 31.17.37L294 303.18 280.8 428.42H140.94l9.39-18.77A39.97 39.97 0 0 0 176 372.42v-17.48a23.97 23.97 0 0 0 16-22.52c0-13.24-10.77-24-24-24H24c-13.23 0-24 10.76-24 24a23.97 23.97 0 0 0 16 22.52v17.48c0 16.99 10.7 31.44 25.67 37.23l9.39 18.77H8a8 8 0 0 0-8 8v32a8 8 0 0 0 8 8h464a8 8 0 0 0 8-8v-32a8 8 0 0 0-8-8zm-296-304h-8c-4.4 0-8-3.6-8-8v-48c0-4.41 3.6-8 8-8h8v64zM463.7 341.7a10.72 10.72 0 0 1 .44 8.68 10.8 10.8 0 0 1-20.73-1.73l-2.07-10.32 18.38-4.6 3.98 7.97zm-53.34-98.92l41.66 76.38-16.5 4.12-28.12-42.2-11.62-44.14 14.58 5.84zm-17.56 49.64l14.32 136H296.89l14.31-136h81.6zm-78.42-16l11.8-44.84c.32.12.64.2.96.32 1.61.59 3.23 1.16 4.88 1.64.64.18 1.28.32 1.9.48 1.54.4 3.06.79 4.62 1.08.79.16 1.58.24 2.36.36 1.45.23 2.9.47 4.36.61 1.04.1 2.08.1 3.1.16 1.22.07 2.42.19 3.64.19s2.42-.12 3.63-.19c1.04-.05 2.07-.06 3.1-.16 1.48-.13 2.92-.37 4.37-.6.78-.13 1.57-.21 2.36-.37 1.56-.3 3.08-.68 4.61-1.08.63-.16 1.27-.3 1.9-.48a67.16 67.16 0 0 0 4.89-1.64c.32-.12.64-.2.96-.32l11.8 44.84h-75.24zM288 60.42c0-8.68 11-16 24-16 .46 0 .9.05 1.35.1l1.29.12c3.37.2 6.6-1.68 7.96-4.82a31.97 31.97 0 0 1 58.8 0 8.07 8.07 0 0 0 7.97 4.82l1.29-.12c.44-.05.88-.1 1.34-.1 13 0 24 7.32 24 16 0 6.39-6.46 12.5-15.72 14.87a8 8 0 0 0-5.98 8.54l4.86 48.59h-94.32l4.86-48.58a8 8 0 0 0-5.99-8.54C294.46 72.92 288 66.8 288 60.42zm8 104c0-5.43.8-10.82 2.36-16h107.27a55.55 55.55 0 0 1 2.37 16 56.02 56.02 0 0 1-37.37 52.74l-.26.1a55.57 55.57 0 0 1-36.75 0l-.27-.1A56.04 56.04 0 0 1 296 164.42zm-104-104h8c4.4 0 8 3.59 8 8v48c0 4.4-3.6 8-8 8h-8v-64zm-8 128c4.4 0 8 3.59 8 8v13.9c-.05 0-.1 0-.15-.02-.2-.02-.36-.1-.55-.13-.44-.06-.88.02-1.3-.02-1.4-.11-2.78-.13-4.17-.05-.7.04-1.38.04-2.06.13a34.5 34.5 0 0 0-6.85 1.74c-.3.12-.62.19-.91.31v-15.86H176c0-4.41 3.6-8 8-8zm-3.62 63.7a13.89 13.89 0 0 1-5.26-18.4c.03-.07.09-.11.12-.18.34-.65.69-1.21 1.04-1.73.43-.6.86-1.21 1.38-1.74a13.75 13.75 0 0 1 3.8-2.65l.33-.18c1.37-.62 2.83-1 4.31-1.15l.33-.03a14.28 14.28 0 0 1 4.8.44c1.5.4 2.95 1.01 4.29 1.92l.13.07c1.6 1.12 3 2.55 4.05 4.3l6.24 10.39-15.17 15.16-10.4-6.23zm81 57.4a7.97 7.97 0 0 1-10.4-.12l-47.28-41.38 12.88-12.88L251 282.66a7.99 7.99 0 0 0 11.24-1.24l30.68-38.36 15.29-6.1-11.3 42.96-35.52 29.6zM24 340.42c-4.4 0-8-3.6-8-8 0-4.41 3.6-8 8-8h144c4.4 0 8 3.59 8 8 0 4.4-3.6 8-8 8H24zm8 32v-16h128v16c0 13.23-10.77 24-24 24H56c-13.23 0-24-10.77-24-24zm99.06 40l-8 16H104v-16h27.06zm-43.06 0v16H68.94l-8-16H88zm376 48H16v-16h448v16z"/><path d="M376 324.42h-48a8 8 0 0 0-8 8v24c0 17.64 14.35 32 32 32s32-14.36 32-32v-24a8 8 0 0 0-8-8zm-8 32c0 8.82-7.18 16-16 16s-16-7.18-16-16v-16h32v16zM88 244.42h16v40H88zM128 260.42h16v32h-16zM48 260.42h16v32H48zM88 212.42h16v16H88zM48 228.42h16v16H48zM128 228.42h16v16h-16z"/></svg>