<svg xmlns="http://www.w3.org/2000/svg" viewBox="0 0 512 512"><circle cx="363.5" cy="97.5" r="7.5"/><circle cx="393.5" cy="97.5" r="7.5"/><circle cx="423.5" cy="97.5" r="7.5"/><path d="M504.5 0h-222a7.5 7.5 0 0 0-7.5 7.5v56.4a66.95 66.95 0 0 0-15-3.44v-7.93a7.5 7.5 0 1 0-15 0v7.93c-33.7 3.74-60 32.39-60 67.07v7.5h-7.5a7.5 7.5 0 1 0 0 15h66.83a42.56 42.56 0 0 1-41.83 35h-48.54a27.55 27.55 0 0 0-25.28-20 7.53 7.53 0 0 0-1.58-.03H78.44c-.5-.05-1-.04-1.5.01a27.54 27.54 0 0 0-26 20.4A57.57 57.57 0 0 0 0 242.54a57.57 57.57 0 0 0 50.5 57.06 52.36 52.36 0 0 0 14.5 29.6v76.02l-43.73 65.1A7.5 7.5 0 0 0 20 474.5v30a7.5 7.5 0 1 0 15 0v-27.72l43.73-65.1A7.5 7.5 0 0 0 80 407.5v-67.58a52.17 52.17 0 0 0 22.5 5.08c8.05 0 15.68-1.83 22.5-5.08V494.5a7.5 7.5 0 0 0 5.13 7.12l30 10a7.5 7.5 0 1 0 4.74-14.24L140 489.1V329.2a52.31 52.31 0 0 0 15-36.63v-92.53h47.5a57.57 57.57 0 0 0 57-50H275V504.5a7.5 7.5 0 0 0 7.5 7.5h222a7.5 7.5 0 0 0 7.5-7.5V7.5a7.5 7.5 0 0 0-7.5-7.5zM50 284.35c-19.87-3.55-35-20.95-35-41.82s15.13-38.27 35-41.82v83.64zM114.93 180l-12.36 22.03L90.45 180h24.48zM65 192.5c0-5.55 3.65-10.27 8.67-11.9L95 219.4v65.63H65V192.5zM102.5 330a37.56 37.56 0 0 1-36.74-29.97h73.48A37.56 37.56 0 0 1 102.5 330zm37.5-44.97h-30v-65.6l21.71-38.69a12.51 12.51 0 0 1 8.3 11.76v92.53zm60-150v-7.5a52.56 52.56 0 0 1 52.5-52.5 52.56 52.56 0 0 1 52.5 52.5v7.5H200zM497 497H290V150.03h37.5a7.5 7.5 0 1 0 0-15H320v-7.5a67.49 67.49 0 0 0-30-56.1V15h207v482z"/><path d="M327.5 233.5c-12.4 0-22.5 10.1-22.5 22.5s10.1 22.5 22.5 22.5c12.41 0 22.5-10.1 22.5-22.5s-10.09-22.5-22.5-22.5zm0 30a7.5 7.5 0 1 1 .02-15.02 7.5 7.5 0 0 1-.02 15.02zM102.5 45C73.55 45 50 68.55 50 97.5S73.55 150 102.5 150 155 126.45 155 97.5 131.45 45 102.5 45zm0 90C81.82 135 65 118.18 65 97.5S81.82 60 102.5 60 140 76.82 140 97.5 123.18 135 102.5 135z"/></svg>