<svg xmlns="http://www.w3.org/2000/svg" viewBox="0 0 512 512"><path d="M0 48.41V463.6h180.55V48.42H0zM165.56 448.6H14.99V63.41h150.57v385.18zM193.04 48.41v15h138.08V448.6H193.03v14.98h153.07V48.42z"/><path d="M34.09 90.37h14.99v14.99H34.09zM84.06 90.37h62.4v14.99h-62.4zM59.07 90.37h14.99v14.99H59.07zM34.09 124.54h112.37v14.99H34.09zM34.09 158.72h112.37v14.99H34.09zM199.65 90.37h14.99v14.99h-14.99zM224.63 90.37h14.99v14.99h-14.99zM249.62 90.37h62.4v14.99h-62.4zM199.65 124.54h112.37v14.99H199.65zM199.65 158.72h112.37v14.99H199.65zM120.24 409.66h14.99v14.99h-14.99zM95.26 409.66h14.99v14.99H95.26zM70.27 409.66h14.99v14.99H70.27zM45.29 409.66h14.99v14.99H45.29zM235.83 409.66h14.99v14.99h-14.99zM260.82 409.66h14.99v14.99h-14.99zM210.85 409.66h14.99v14.99h-14.99zM285.8 409.66h14.99v14.99H285.8zM361.98 200.39h14.99v14.99h-14.99zM361.98 250.35h14.99v95.22h-14.99zM361.98 225.37h14.99v14.99h-14.99z"/><path d="M358.93 48.41v15h138.08V448.6H358.93v14.98H512V48.42z"/><path d="M415.51 90.37h62.4v14.99h-62.4zM365.54 90.37h14.99v14.99h-14.99zM390.52 90.37h14.99v14.99h-14.99zM365.54 124.54h112.37v14.99H365.54zM365.54 158.72h112.37v14.99H365.54zM376.74 409.66h14.99v14.99h-14.99zM401.73 409.66h14.99v14.99h-14.99zM426.71 409.66h14.99v14.99h-14.99zM451.69 409.66h14.99v14.99h-14.99zM26.59 225.37h14.99v14.99H26.59zM26.59 250.35h14.99v95.22H26.59zM26.59 200.39h14.99v14.99H26.59zM129.1 245.59a26.5 26.5 0 0 0-26.48 26.47 26.5 26.5 0 0 0 26.47 26.47 26.5 26.5 0 0 0 26.47-26.47 26.5 26.5 0 0 0-26.47-26.47zm0 37.95a11.5 11.5 0 0 1-11.49-11.48 11.5 11.5 0 0 1 22.96 0 11.5 11.5 0 0 1-11.48 11.48zM460.2 245.59a26.5 26.5 0 0 0-26.46 26.47c0 14.6 11.87 26.47 26.47 26.47s26.47-11.87 26.47-26.47a26.5 26.5 0 0 0-26.47-26.47zm0 37.95a11.5 11.5 0 0 1-11.47-11.48 11.5 11.5 0 0 1 11.48-11.48 11.5 11.5 0 0 1 11.48 11.48 11.5 11.5 0 0 1-11.48 11.48zM232.84 242.5v-16.98a23.01 23.01 0 0 1 22.99-22.99 23.01 23.01 0 0 1 22.99 23V236h14.99v-10.49c0-20.94-17.04-37.98-37.98-37.98s-37.98 17.04-37.98 37.98v16.99h-20.48v116.92h116.92V242.51h-81.45zm66.46 101.94h-86.94V257.5h86.94v86.94z"/><path d="M255.83 266.13a25.31 25.31 0 1 0-17.57 43.53v25.97h35.15v-25.98a25.32 25.32 0 0 0-17.58-43.52zm5.83 33.82l-3.24 2.24v18.45h-5.18v-18.45l-3.25-2.24a10.34 10.34 0 0 1 5.84-18.83 10.33 10.33 0 0 1 5.83 18.83z"/></svg>