<svg xmlns="http://www.w3.org/2000/svg" viewBox="0 0 512 512"><path d="M503.62 340.79c-4-1.97-7.87-4.44-11.5-7.34-26.93-21.54-61.44-25.4-91.09-11.6l-66.5-66.5a60.07 60.07 0 0 0 56.47-59.9c0-33.08-26.92-60-60-60a60.07 60.07 0 0 0-59.89 56.48l-41.47-41.47 58.18-58.19a44.96 44.96 0 0 0 0-63.63 45.05 45.05 0 0 0-63.64 0l-90 90a44.96 44.96 0 0 0 0 63.63l49.4 49.4-85.08 85.07c-26.1-7.08-54.33-1.52-77.12 16.7-4 3.2-8.27 5.86-12.69 7.92a15 15 0 0 0 12.63 27.21c6.6-3.06 12.93-7 18.8-11.7 21.61-17.29 50.65-17.29 72.26 0 32.69 26.15 75.93 26.25 108.74 0 21.64-17.31 49.61-17.31 71.26 0 32.68 26.15 75.93 26.25 108.74 0 21.6-17.29 50.65-17.29 72.26 0a92.82 92.82 0 0 0 17 10.84 15 15 0 0 0 13.24-26.92zM331 165.46c16.54 0 30 13.45 30 30 0 16.54-13.46 30-30 30s-30-13.46-30-30c0-16.55 13.46-30 30-30zm-19.88 167.99c-16.06-12.85-34.86-19.64-54.37-19.64s-38.31 6.79-54.37 19.64c-21.64 17.31-49.61 17.31-71.26 0a95.01 95.01 0 0 0-3.93-2.97l88.2-88.2a15 15 0 0 0 0-21.22l-60-60a14.98 14.98 0 0 1 0-21.2l90-90a14.98 14.98 0 0 1 21.22 0 14.98 14.98 0 0 1 0 21.2l-68.8 68.79a15 15 0 0 0 0 21.21l177.37 177.37c-20.4 12.12-44.75 10.47-64.06-4.98z"/><path d="M503.62 400.79c-4-1.97-7.87-4.44-11.5-7.35-32.82-26.25-76.92-26.25-109.74 0-21.65 17.32-49.61 17.32-71.26 0-16.06-12.84-34.86-19.63-54.37-19.63s-38.31 6.79-54.37 19.63c-21.64 17.32-49.61 17.32-71.26 0-32.82-26.25-76.92-26.25-109.74 0-4 3.2-8.26 5.86-12.69 7.92a15 15 0 0 0 12.63 27.21c6.6-3.06 12.93-7 18.8-11.7 21.61-17.29 50.65-17.29 72.26 0 32.69 26.15 75.93 26.25 108.74 0 21.65-17.31 49.62-17.31 71.26 0 32.68 26.15 75.93 26.25 108.74 0 21.6-17.29 50.65-17.29 72.26 0a92.82 92.82 0 0 0 17 10.84 15 15 0 1 0 13.24-26.92z"/><path d="M503.62 460.79c-4-1.97-7.87-4.44-11.5-7.35-32.82-26.25-76.92-26.25-109.74 0-21.65 17.32-49.61 17.32-71.26 0-16.06-12.84-34.86-19.63-54.37-19.63s-38.31 6.79-54.37 19.63c-21.64 17.32-49.61 17.32-71.26 0-32.82-26.25-76.92-26.25-109.74 0-4 3.2-8.26 5.86-12.69 7.92a15 15 0 0 0 12.63 27.21c6.6-3.06 12.93-7 18.8-11.7 21.61-17.29 50.65-17.29 72.26 0 32.69 26.15 75.93 26.25 108.74 0 21.65-17.32 49.62-17.32 71.26 0 32.68 26.15 75.93 26.25 108.74 0 21.6-17.29 50.65-17.29 72.26 0a92.82 92.82 0 0 0 17 10.84 15 15 0 1 0 13.24-26.92z"/></svg>