<svg xmlns="http://www.w3.org/2000/svg" viewBox="0 0 512.03 512.03"><path d="M362.68 106.7H149.35A53.4 53.4 0 0 0 96 160.02v298.66a53.4 53.4 0 0 0 53.34 53.34h213.33a53.4 53.4 0 0 0 53.33-53.34V160.03a53.4 53.4 0 0 0-53.33-53.34zm32 352c0 17.64-14.36 32-32 32H149.35c-17.65 0-32-14.36-32-32V160.02c0-17.65 14.35-32 32-32h213.33c17.64 0 32 14.35 32 32v298.66z"/><path d="M215.93 299.01a10.63 10.63 0 0 0-12.93 7.77l-10.99 43.95-10.98-43.95a10.66 10.66 0 1 0-20.7 5.16l21.34 85.34a10.67 10.67 0 0 0 20.69 0l21.33-85.34a10.67 10.67 0 0 0-7.76-12.93zM256.01 298.7a10.67 10.67 0 0 0-10.66 10.66v85.33a10.67 10.67 0 0 0 21.33 0v-85.33c0-5.89-4.78-10.67-10.67-10.67zM320.01 298.7h-21.33a10.67 10.67 0 0 0-10.67 10.66v85.33a10.67 10.67 0 0 0 21.34 0v-32H320c17.65 0 32-14.35 32-32 0-17.64-14.35-32-32-32zm0 42.66h-10.66v-21.33H320c5.9 0 10.67 4.8 10.67 10.67 0 5.86-4.78 10.66-10.67 10.66zM362.68 256.03H149.35a10.67 10.67 0 0 0 0 21.33h213.33a10.67 10.67 0 0 0 0-21.33zM362.68 426.7H149.35a10.67 10.67 0 0 0 0 21.33h213.33a10.67 10.67 0 0 0 0-21.34zM256.01 149.36c-17.64 0-32 14.36-32 32s14.36 32 32 32c17.65 0 32-14.36 32-32s-14.35-32-32-32zm0 42.67c-5.88 0-10.66-4.8-10.66-10.67s4.78-10.67 10.66-10.67c5.9 0 10.67 4.8 10.67 10.67s-4.78 10.67-10.67 10.67z"/><path d="M346.13 1.14a10.67 10.67 0 0 0-14.32 4.78l-85.33 170.66a10.69 10.69 0 0 0 9.53 15.45c3.9 0 7.66-2.18 9.56-5.91L350.9 15.45c2.63-5.27.5-11.67-4.77-14.31zM233.55 112.58L180.22 5.92a10.69 10.69 0 0 0-19.1 9.56l53.34 106.66a10.71 10.71 0 0 0 14.31 4.76 10.67 10.67 0 0 0 4.78-14.32z"/></svg>