<svg xmlns="http://www.w3.org/2000/svg" width="272.94" height="272.94"><path d="M70.98 264.85a86.5 86.5 0 0 0 36.18 8.1c7.78 0 15.63-1.11 23.32-3.3 26.26-7.43 45.48-23.76 57.35-48.35.78 1.31 1.54 2.63 2.33 3.94l2.64 4.43a14.33 14.33 0 0 0 19.35 5.18l5.35-3c4.03-2.25 7.92-4.42 11.8-6.64l2.3-1.33c4.15-2.36 8.43-4.8 12.66-7.56a22.15 22.15 0 0 0 6.53-30.93c-4.25-6.55-10.97-10.3-18.42-10.3-3.77 0-7.47.96-11 2.84-.09.05-.18.1-.27.13-4.4-7.58-8.76-15.11-13.1-22.67-1.4-2.45-2.76-4.92-4.12-7.4-2.01-3.64-4.09-7.41-6.33-11.16a25.36 25.36 0 0 0-15.57-11.68 22.48 22.48 0 0 0 2.1-9.84c-.13-12.28-9.53-20.85-22.87-20.85h-26.79c-.03-4.49-.18-9.11-.83-13.92a30.03 30.03 0 0 0-11.06-19.66c8.17-5.82 13.3-15.3 13.63-26.86a32.34 32.34 0 0 0-9.36-23.6A34.27 34.27 0 0 0 102.4 0h-.4c-8.53.1-17.05 3.89-23.36 10.4a32.54 32.54 0 0 0-9.4 23.1 33.2 33.2 0 0 0 9.52 23.79 32.7 32.7 0 0 0 4.19 3.55 31.98 31.98 0 0 0-11.93 25.03l.02 2.57.1 17.35c-.52-.05-1.02-.2-1.53-.2-2.42 0-4.83.6-7.01 1.83-10.23 5.73-18.42 12.8-25.06 21.62-18.2 24.19-23.51 51.72-15.37 79.63 7.45 25.55 24.33 44.98 48.81 56.18zm9.21-93.66a32.7 32.7 0 0 0 23.15 9.88h.67c7.77-.18 16-.24 26.7-.24 5.1 0 10.18.01 15.27.03 4.41.02 8.82.03 13.24.03a14.31 14.31 0 0 0-4.61 6.28c-.79 2.1-1.52 4.26-2.26 6.42-1.43 4.2-2.78 8.16-4.48 11.57-6.4 12.82-16.8 20.73-30.9 23.52-3.53.71-7 1.06-10.31 1.06-10.9 0-20.43-3.71-29.12-11.35-10.5-9.21-15.7-20.34-15.92-34.01a43.6 43.6 0 0 1 10.03-29.05 32.38 32.38 0 0 0 8.54 15.86zM125 108.8l12.2.01h24.02c5.39 0 8.5 2.42 8.54 6.65.05 4.75-3.13 7.57-8.55 7.57H120.44v15.3h4.95l29.3.03c5.93 0 11.86 0 17.78-.03h.16c5.18 0 9.8 1.15 12.61 5.86 3.6 6.02 6.84 12.25 10.33 18.34 6.64 11.56 13.33 23.08 20.13 34.82 4.42-2.42 8.4-4.63 12.4-6.76a9.1 9.1 0 0 1 4.26-1.15c2.53 0 4.8 1.29 6.4 3.76a7.84 7.84 0 0 1-2.34 11.11c-4.63 3.02-9.47 5.71-14.26 8.46-5.51 3.16-11.08 6.23-17.03 9.57-2.84-4.77-5.68-9.44-8.41-14.17a11354.1 11354.1 0 0 1-22.26-38.77c-1.1-1.93-2.44-2.87-4.84-2.87h-.04c-2.75.02-5.5.02-8.24.02-10.21 0-20.43-.07-30.64-.07-9 0-18 .06-27 .25h-.37c-9.84 0-18.24-8.6-18.05-17.93.42-21 .24-42.02.08-63.02-.07-8.94 6.87-16.4 14.84-17.26.8-.09 1.58-.13 2.34-.13 8.73 0 15.67 5.49 16.84 14.09.97 7.12.61 14.41.77 21.64.1 4.63.04 4.68 4.83 4.68zm-22.8-94.45h.21c10.5 0 19.74 8.83 19.44 19.25-.32 10.87-7.27 18.97-19.22 19.14h-.28c-10.53 0-18.9-8.32-18.75-19.25-.2-10.96 9.72-19.04 18.6-19.14zM49 137.68c5.35-7.12 12.06-12.95 20.61-17.74 0 5.64.12 10.59-.09 15.51-.04 1.09-1.01 2.35-1.9 3.16-13.4 12.42-20.64 27.72-20.35 46 .29 17.74 7.31 32.7 20.8 44.54 11.48 10.1 24.53 14.92 38.57 14.92 4.28 0 8.65-.45 13.1-1.33 18.36-3.63 32.47-14.2 40.95-31.18 3.1-6.2 4.98-13.03 7.34-19.39 2.76 4.7 6 9.95 8.9 15.4.58 1.1.11 3.1-.46 4.42-9.81 22.35-26.37 37.2-49.9 43.87-6.5 1.84-13 2.74-19.41 2.74a72.22 72.22 0 0 1-30.21-6.78c-20.57-9.41-34.65-25.31-41.02-47.16-7.11-24.4-2.08-46.85 13.07-66.98z"/></svg>