<svg xmlns="http://www.w3.org/2000/svg" viewBox="0 0 512.01 512.01"><path d="M511.91 199.23l-7.86-50.6a8.53 8.53 0 0 0-9.85-7.1l-36.21 6.13-3.8-16.55 34.08-7.57a8.56 8.56 0 0 0 6.43-10.4L486.17 79a8.55 8.55 0 0 0-10.13-6.26l-76.8 17.06a8.56 8.56 0 0 0-6.44 10.4l8.54 34.14a8.5 8.5 0 0 0 10.1 6.27l26.08-5.8 3.6 15.7-375.6 63.62-3.7-14.8 33.9-7.54a8.56 8.56 0 0 0 6.43-10.4l-8.53-34.13A8.57 8.57 0 0 0 83.49 141l-76.8 17.06a8.58 8.58 0 0 0-6.44 10.41l8.54 34.14a8.53 8.53 0 0 0 10.13 6.27l26.24-5.83 3.5 13.95-33.01 5.6a8.54 8.54 0 0 0-7 9.72l7.85 50.6a8.52 8.52 0 0 0 9.82 7.1l164.22-27.08-14.61 116.8h-13.8c-19.14 0-34.13 11.79-34.13 26.82v6.1c0 15.03 14.99 26.81 34.13 26.81h187.73c11.73 0 34.14-10.44 34.14-26.82v-6.1c0-15.03-15-26.8-34.14-26.8h-5.26l-16.07-128.56a67.94 67.94 0 0 0-.9-10.01L505 208.93a8.54 8.54 0 0 0 6.91-9.7zm-96.05-77.1l-4.4-17.56L471.6 91.2l4.4 17.57-60.14 13.37zm-206.8 129.61a51.25 51.25 0 0 1 51.2-51.2 51.25 51.25 0 0 1 51.2 51.2c0 .35.02.7.07 1.06l15.86 126.94H193.13L209 252.8c.06-.35.07-.7.07-1.06zM23.33 190.4l-4.4-17.57 60.14-13.36 4.4 17.57-60.14 13.36zm8.7 81.37L26.8 238l181.84-30.8a67.93 67.93 0 0 0-16.28 38.14L32.03 271.77zM337.06 396.8h12.8c9.77 0 17.07 5.14 17.07 9.74v6.1c0 3.2-10.54 9.76-17.07 9.76H162.13c-9.77 0-17.07-5.16-17.07-9.76v-6.1c0-4.6 7.3-9.74 17.07-9.74h174.93zm-14.13-172.12a68.66 68.66 0 0 0-28.58-32L488.5 159.8l5.25 33.83-170.82 31.06z"/><path d="M256 226.14c-14.12 0-25.6 11.49-25.6 25.6s11.48 25.6 25.6 25.6c14.11 0 25.6-11.48 25.6-25.6s-11.49-25.6-25.6-25.6zm0 34.13a8.54 8.54 0 1 1 .01-17.08 8.54 8.54 0 0 1-.01 17.08z"/></svg>