<svg xmlns="http://www.w3.org/2000/svg" viewBox="0 0 422.21 422.21"><path d="M404.3 87.4h-83.64V49.93c0-7.34-5.97-13.3-13.31-13.3H114.86a13.33 13.33 0 0 0-13.3 13.3V87.4H17.91A17.94 17.94 0 0 0 0 105.3v234.05c0 9.88 8.04 17.92 17.92 17.92h25.53a8 8 0 0 0 0-16H17.92a1.94 1.94 0 0 1-1.92-1.92V180.63c44.26 12.14 94.8 20.03 147.27 22.99a23.42 23.42 0 0 0 14.45 16.48v22.75a8 8 0 0 0 8 8h50.77a8 8 0 0 0 8-8V220.1a23.43 23.43 0 0 0 14.46-16.49c52.47-2.95 103-10.84 147.26-22.98v158.73c0 1.04-.88 1.92-1.92 1.92H243.12a8 8 0 0 0 0 16h161.17c9.88 0 17.92-8.04 17.92-17.92V170.21v-64.9c0-9.88-8.04-17.91-17.92-17.91zM165.2 187.7c-53.42-2.94-104.74-11.08-149.2-23.68v-58.7c0-1.05.88-1.92 1.92-1.92h159.82l.22 72.97a23.47 23.47 0 0 0-12.77 11.33zm63.3 47.15h-34.78v-13.23h34.77v13.23zm7.97-29.24h-.23-50.26H185.74a7.34 7.34 0 0 1 .23-14.66h50.46a7.34 7.34 0 0 1 .04 14.66zM193.74 103.4h34.75v71.55h-34.53l-.22-71.55zm42.75-16H117.55V52.62h187.1V87.4H236.5zm169.72 76.62c-44.45 12.6-95.77 20.74-149.19 23.68a23.46 23.46 0 0 0-12.53-11.24V103.4h159.8c1.04 0 1.92.88 1.92 1.92v58.7zM203.03 314.46h-45.18c-2.4 0-4.73.4-6.9 1.12a21.7 21.7 0 0 0-3.8-20.69 21.68 21.68 0 0 0 4.92-13.78 21.8 21.8 0 0 0-21.78-21.78H85.12a21.8 21.8 0 0 0-21.78 21.78c0 5.23 1.85 10.03 4.92 13.78a21.68 21.68 0 0 0-4.92 13.79c0 5.22 1.85 10.02 4.92 13.78a21.7 21.7 0 0 0 0 27.57 21.69 21.69 0 0 0-4.92 13.78 21.8 21.8 0 0 0 21.78 21.78h45.17c5.23 0 10.03-1.85 13.78-4.93a21.68 21.68 0 0 0 13.78 4.93h45.18a21.8 21.8 0 0 0 21.78-21.78c0-5.23-1.85-10.03-4.93-13.79a21.69 21.69 0 0 0 4.93-13.78 21.8 21.8 0 0 0-21.78-21.78zm-72.74 55.13H85.12a5.79 5.79 0 0 1 0-11.56h45.17a5.79 5.79 0 0 1 0 11.56zm0-27.57H85.12a5.79 5.79 0 0 1 0-11.56h45.17a5.79 5.79 0 0 1 0 11.56zm0-27.56H85.12a5.79 5.79 0 0 1 0-11.57h45.17a5.79 5.79 0 0 1 0 11.57zm0-27.57H85.12a5.79 5.79 0 0 1 0-11.56h45.17a5.79 5.79 0 0 1 0 11.56zm72.74 82.7h-45.18a5.79 5.79 0 0 1 0-11.56h45.17a5.79 5.79 0 0 1 0 11.56zm0-27.57h-45.18a5.79 5.79 0 0 1 0-11.56h45.18a5.79 5.79 0 0 1 0 11.56z"/></svg>