<svg xmlns="http://www.w3.org/2000/svg" viewBox="0 0 188.74 188.74"><path d="M164.24 99.77H151.2l.69-14.47a6 6 0 0 0-6-6.28H13.9a6 6 0 0 0-5.99 6.28l2.66 55.89a35.4 35.4 0 0 0 21 30.7H6a6 6 0 0 0 0 12h148.65a6 6 0 0 0 0-12h-26.43a35.42 35.42 0 0 0 19.81-23.12h16.21c13.51 0 24.5-11 24.5-24.5s-10.99-24.5-24.5-24.5zm-50.42 63.18H45.98a23.42 23.42 0 0 1-23.42-22.33l-2.36-49.6h119.4l-2.36 49.6a23.42 23.42 0 0 1-23.42 22.33zm50.42-26.18h-14.8l1.19-25.02.27.02h13.34a12.5 12.5 0 0 1 0 25zM62.27 69.18a5.97 5.97 0 0 0 8.22-2.1 6 6 0 0 0-2.11-8.23c-3.34-1.97-5.65-5.6-6.33-9.98-.71-4.55.48-9.08 3.18-12.12l.07-.08 1.95-2.25c5.55-6.38 11.3-12.97 12.94-22.56a6 6 0 1 0-11.83-2.03c-1.07 6.28-5.28 11.1-10.16 16.7l-1.98 2.3c-5.03 5.68-7.28 13.86-6.02 21.9 1.23 7.92 5.63 14.65 12.07 18.45zM80.9 55.63a30.84 30.84 0 0 0 9.94 13.16 5.97 5.97 0 0 0 8.41-1.13 6 6 0 0 0-1.13-8.41 18.93 18.93 0 0 1-6.04-7.96c-2.34-6.02-.13-12.02 7.4-20.07 5.35-5.7 8.76-12.42 9.88-19.43A6 6 0 0 0 97.51 9.9c-.75 4.7-3.03 9.11-6.78 13.12-3.94 4.2-15.9 16.99-9.84 32.61z"/></svg>