<svg xmlns="http://www.w3.org/2000/svg" viewBox="0 0 512 512"><path d="M482.83 140.62l-12.66 20.58c-7.88-27.1-21.95-51.17-41.66-70.88-43.66-43.65-108.88-59.23-176-42.52A145.26 145.26 0 0 0 145.63 1C65.34 1 0 66.32 0 146.62s65.33 145.64 145.64 145.64 145.64-65.33 145.64-145.64c0-26.38-7.06-51.15-19.38-72.52 52.42-9.57 101.98 3.77 135.52 37.3 16.85 16.86 28.7 37.73 35 61.38L416 156.51l-15.64 25.4 66.77 41.1 41.1-66.76-25.4-15.64zm-337.2 121.82c-63.85 0-115.8-51.95-115.8-115.8 0-63.87 51.95-115.82 115.8-115.82 63.87 0 115.82 51.95 115.82 115.81S209.5 262.44 145.64 262.44z"/><path d="M138.16 178.33a44.45 44.45 0 0 0 2.53-14.85v-2.4h21.22v-29.82H140.7V117.4c0-8.2 6.67-14.86 14.86-14.86s14.85 6.67 14.85 14.86h29.83c0-24.64-20.05-44.68-44.68-44.68s-44.68 20.04-44.68 44.68v13.86H96.02v29.82h14.85v2.4c0 8.19-6.66 14.85-14.85 14.85v29.83h99.34v-29.83h-57.2zM366.36 219.73c-80.3 0-145.64 65.33-145.64 145.64 0 27.24 7.53 52.76 20.6 74.6-52.23 9.39-101.6-3.97-135.03-37.4-16.86-16.86-28.7-37.73-35-61.38l26.42 16.27 15.64-25.4-66.77-41.11-41.1 66.76 25.4 15.64 12.66-20.57c7.88 27.1 21.95 51.17 41.66 70.88 32.17 32.17 76.05 49.1 123.77 49.1a216.4 216.4 0 0 0 52.37-6.6A145.23 145.23 0 0 0 366.36 511C446.66 511 512 445.68 512 365.38s-65.33-145.64-145.64-145.64zm0 261.45c-63.85 0-115.8-51.96-115.8-115.81 0-63.86 51.95-115.81 115.8-115.81s115.81 51.95 115.81 115.8c0 63.87-51.95 115.82-115.8 115.82z"/><path d="M368.64 350.47h-4.55a6.23 6.23 0 0 1 0-12.45h4.55c3.43 0 6.22 2.8 6.22 6.22h29.83a36.1 36.1 0 0 0-23.41-33.75V289.6h-29.83v20.89a36.1 36.1 0 0 0-23.41 33.75 36.1 36.1 0 0 0 36.05 36.05h4.55a6.23 6.23 0 0 1 0 12.45h-4.55a6.23 6.23 0 0 1-6.22-6.23h-29.83a36.1 36.1 0 0 0 23.4 33.76v20.86h29.84v-20.86a36.1 36.1 0 0 0 23.4-33.75 36.1 36.1 0 0 0-36.04-36.05z"/></svg>