<svg xmlns="http://www.w3.org/2000/svg" viewBox="0 0 479.98 479.98"><path d="M452 103.98h-32a8 8 0 0 0-8 8v8a8 8 0 0 0-8-8h-24a8 8 0 0 0-8 7.47l-.56 8.53h-15.45v-16a8 8 0 0 0-8-8h-32a8 8 0 0 0-8 8v48a8 8 0 0 0 8 8h32a8 8 0 0 0 8-8v-16h14.4l-4.37 65.45a15.93 15.93 0 0 1-15.95 14.55H300v-3.43a8 8 0 0 0-4.58-7.2 128.78 128.78 0 0 0-34.12-10.48 7.95 7.95 0 0 0-3.81.38 78.7 78.7 0 0 0-13.49-2.84v-21.83a66.68 66.68 0 0 0 6.88-4.05c26.88-18.81 49.12-37.7 49.12-78.35v-8.2a88.32 88.32 0 0 0-27.83-64.21 88.8 88.8 0 0 0-112.92-6.62 63.93 63.93 0 0 0-75.25 62.83v120a8 8 0 0 0 8 8 118.57 118.57 0 0 0 82.13-32.85c1.9 1.25 3.86 2.4 5.87 3.45v21.83a78.68 78.68 0 0 0-13.5 2.81 7.94 7.94 0 0 0-3.8-.38c-11.8 1.89-23.29 5.42-34.12 10.48a8 8 0 0 0-4.58 7.2v.26a189.75 189.75 0 0 0-48 123.2c0 21.95 1.05 47.2 7.54 64H68v-16a8 8 0 0 0-8-8H28a8 8 0 0 0-8 8v48a8 8 0 0 0 8 8h32a8 8 0 0 0 8-8v-16h45.74a122.4 122.4 0 0 0-13.74 56h16a106.15 106.15 0 0 1 8-40.11v.11a8 8 0 0 0 8 8h32a8 8 0 0 0 8-8v-32h100.16l4.6 5.76A106.4 106.4 0 0 1 300 479.98h16a122.46 122.46 0 0 0-26.74-76.23l-6.12-7.65-3.08-9.21a99.84 99.84 0 0 1 2.01-68.56l.45-1.12A25 25 0 0 0 300 294.78v-.33l86.71-18.57a32.18 32.18 0 0 0 25.3-31.3v-84.6a8 8 0 0 0 8 8h32a8 8 0 0 0 8-8v-48a8 8 0 0 0-8-8zm-112 48h-16v-32h16v32zm-288 280H36v-32h16v32zm61.98-27.37l.56 3.4h-13.28C96.7 401.65 92 385.1 92 343.98a177.46 177.46 0 0 1 32-98.36v48.59c-10.55 23.9-14.05 86.1-10 110.4zM207.2 16.13a71.91 71.91 0 0 1 76.16 62.59l-43.78-21.9a7.94 7.94 0 0 0-4.97-.72l-92.94 16.4a71 71 0 0 1 65.53-56.37zM100 191.68V79.98a48.05 48.05 0 0 1 43.57-47.77 88 88 0 0 0-19.57 55.77v8.2c0 34.32 15.88 53.11 37 69.47a102.6 102.6 0 0 1-61 26.03zm40-95.5v-7.13l94.8-16.73 49.16 24.58c-.23 29.8-13.84 44.63-42.25 64.52a52 52 0 0 1-59.42 0c-28.65-20.06-42.29-34.93-42.29-65.24zm32 121.97a60.96 60.96 0 0 1 16-2.17 8 8 0 0 0 8-8v-23.33a62.22 62.22 0 0 0 32 0v23.33a8 8 0 0 0 8 8c5.4.01 10.79.74 16 2.17v12.8l-40 8.6-40-8.6v-12.8zm-43.53 166.74a335.68 335.68 0 0 1 6.17-71.3 32.71 32.71 0 0 0 6.69 3.55 99.03 99.03 0 0 1 .98 66.84H132a7.8 7.8 0 0 0-3.54.9zm27.53 47.1h-16v-32h16v32zm16-40a8 8 0 0 0-8-8h-4.8c6.06-20.91 6.06-43.1 0-64h105.28a115.9 115.9 0 0 0 .4 72H172zm112-97.2c0 4.34-6.84 9.2-16 9.2H156c-9.16 0-16-4.86-16-9.2v-69.03c5.2-2.15 10.54-3.9 16-5.23v16.9a8 8 0 0 0 6.32 7.83l48 10.33c1.1.24 2.25.24 3.36 0l48-10.33a8 8 0 0 0 6.32-7.82v-16.91c5.46 1.33 10.8 3.08 16 5.22v69.03zm99.35-34.56L300 278.09v-38.1h50.08a31.9 31.9 0 0 0 31.89-29.3l5.52-82.7h8.51v116.6a16.08 16.08 0 0 1-12.65 15.64zM444 151.98h-16v-32h16v32z"/></svg>