<svg xmlns="http://www.w3.org/2000/svg" width="59.17" height="59.17"><path d="M29.58 59.17a29.58 29.58 0 1 0 0-59.17 29.58 29.58 0 0 0 0 59.17zm0-54.17a24.61 24.61 0 0 1 24.59 24.58c0 5.68-1.94 10.9-5.18 15.07L37.98 33.68h5.69V25.1H29.39L14.46 10.23A24.46 24.46 0 0 1 29.58 5zm-19.36 9.47l10.67 10.64H8v8.57h21.48L44.76 48.9a24.45 24.45 0 0 1-15.18 5.27A24.61 24.61 0 0 1 5 29.58c0-5.7 1.95-10.94 5.22-15.11z"/><path d="M45 25.11h2.67v8.56H45zM49 25.11h2.67v8.56H49zM37.5 16.2s10-.04 12.17 6.36c0 0-.5-10.05-12.84-9.87s-11.5-5.73-11.5-5.73S22 14.54 37.5 16.2z"/><path d="M46.83 24.3s-.4-7.04-10.49-6.91c-10.08.13-9.4-4.01-9.4-4.01s-2.73 5.3 9.94 6.47c0 0 8.18-.03 9.95 4.45z"/></svg>