<svg xmlns="http://www.w3.org/2000/svg" viewBox="0 0 512 512"><path d="M490.58 304.75a10.58 10.58 0 0 0-1.49-3.59 10.21 10.21 0 0 0-4.49-3.68 9.9 9.9 0 0 0-9.38.91 10.21 10.21 0 0 0-3.68 4.5 10.58 10.58 0 0 0-.77 3.82 9.85 9.85 0 0 0 .77 3.82 9.87 9.87 0 0 0 5.41 5.41 10.07 10.07 0 0 0 7.65 0 10.07 10.07 0 0 0 5.98-7.28 9.91 9.91 0 0 0 0-3.9zM242.53 160.2a10 10 0 0 0-13.96-2.25 10.41 10.41 0 0 1-12.2 0 10 10 0 1 0-11.71 16.22 30.38 30.38 0 0 0 35.62 0 10 10 0 0 0 2.25-13.96zM310.67 160.2a10 10 0 0 0-13.96-2.25 10.41 10.41 0 0 1-12.2 0 10 10 0 1 0-11.71 16.22 30.38 30.38 0 0 0 35.62 0 10 10 0 0 0 2.25-13.96zM276.06 204.2a10 10 0 0 0-13.96-2.26 10.41 10.41 0 0 1-12.2 0 10 10 0 1 0-11.7 16.21 30.38 30.38 0 0 0 35.6 0 10 10 0 0 0 2.26-13.96zM416.47 166.04c-3.28-3.01-3.54-3.53-3.54-5.1 0-1.55.26-2.07 3.54-5.09 1.4-1.29 3-2.75 4.5-4.57a10 10 0 1 0-15.4-12.76 30.3 30.3 0 0 1-2.63 2.6c-3.99 3.67-10.01 9.2-10.01 19.83 0 10.62 6.02 16.15 10 19.82 3.29 3.01 3.55 3.53 3.55 5.1 0 1.55-.26 2.07-3.54 5.09-.83.76-1.77 1.62-2.7 2.57a10 10 0 1 0 14.3 13.98c.56-.57 1.23-1.18 1.93-1.83 3.99-3.66 10.01-9.2 10.01-19.82s-6.02-16.15-10-19.82zM465.15 194.9c-3.28-3.02-3.54-3.54-3.54-5.1 0-1.56.26-2.08 3.54-5.1 1.4-1.29 3-2.75 4.5-4.57a10 10 0 1 0-15.4-12.76c-.64.78-1.6 1.67-2.63 2.6-3.99 3.67-10.01 9.2-10.01 19.83 0 10.62 6.02 16.15 10 19.82 3.29 3.01 3.55 3.53 3.55 5.1s-.26 2.07-3.54 5.09c-.83.76-1.77 1.62-2.7 2.57a10 10 0 0 0 14.3 13.98c.56-.57 1.23-1.18 1.93-1.83 3.99-3.66 10.01-9.2 10.01-19.82 0-10.62-6.02-16.15-10-19.81z"/><path d="M380 302.56a41.01 41.01 0 0 0-6.99-21.86c24.52 4.68 47.21 10.87 67.47 18.47a9.98 9.98 0 0 0 12.88-5.85 10 10 0 0 0-5.85-12.88c-43.28-16.23-96.84-26.3-155.42-29.29a85.23 85.23 0 0 0 32.22-25.1 78.66 78.66 0 0 0 16.54-46.74c21.75-25.52 27.1-61.54 13.5-92.9a88.5 88.5 0 0 0-62.9-51.49c-1.4-1.42-2.88-2.79-4.46-4.1-9.18-7.61-22.84-12.36-38.44-13.37a102.27 102.27 0 0 0-49.56 9.52c-38.9 18.09-49 55.03-50.63 62.26-13.46 59.58 16.07 96.98 24.9 106.54 5.69 24.4 22.7 44.47 46.67 55.38-58.59 2.98-112.17 13.07-155.44 29.3A272.4 272.4 0 0 0 26.31 298a10 10 0 0 0 9.84 17.4 252.4 252.4 0 0 1 35.37-16.24c20.25-7.6 42.95-13.8 67.47-18.47a41 41 0 0 0-6.99 21.86C49.16 320.27 0 353.62 0 392.5c0 29.12 27.9 55.6 78.54 74.6 47.56 17.84 110.58 27.66 177.46 27.66 66.88 0 129.9-9.82 177.46-27.66 50.65-19 78.54-45.48 78.54-74.6 0-38.87-49.16-72.22-132-89.93zM304.52 81.84c2.33-6.14 2.71-13.3 1.27-20.53a68.54 68.54 0 0 1 30.22 33.06 69.25 69.25 0 0 1 .22 54.9c-.9-2.66-1.93-5.34-3.09-8a88.88 88.88 0 0 0-40.75-43.55 33.57 33.57 0 0 0 12.13-15.88zM285.14 61.4c1.9 5.38 1.85 10.26.68 13.35-3.29 8.65-12.13 11.11-31.37 14.4l-1.5.25c-15.91 2.7-34.89 5.9-51.7 17.48 4.57-11.27 14.8-28.67 36.38-38.7 15.11-7.03 32.52-9.47 47.5-6.78zm-110 82.29a103.76 103.76 0 0 0-2.62 13.76c-6.36-15.2-10.77-36.74-4.65-63.8C169.14 88 177 59.24 207.42 45.1c21.91-10.2 43.03-9.22 56.48-4.43a104.76 104.76 0 0 0-34.7 9.35c-38.9 18.1-49 55.04-50.64 62.26a135.46 135.46 0 0 0-3.41 31.39zM152 351.74V310.9v-7.22a21.29 21.29 0 0 1 21.27-21.26h55.46a10 10 0 0 0 9.94-8.9l3-27.33a10 10 0 0 0-6.7-10.55c-22.58-7.74-38.51-25.12-42.69-46.53-1.21-10.56-1.46-29.67 3.41-44.23l.02-.04.12-.36.03-.1.11-.32.1-.25v-.04a38.05 38.05 0 0 1 5.19-10v-.02c.1-.1.17-.22.26-.33l.1-.13.15-.19.14-.18.1-.1.2-.25.06-.07.23-.27.04-.04.26-.29c14.78-16.23 34.47-19.56 53.5-22.78l.49-.08h.04l3.75-.65a68.94 68.94 0 0 1 54.22 40.83c3.92 9.06 5.97 17.91 6.1 26.32v1.58c0 27.11-17.03 49.6-44.42 58.7a10 10 0 0 0-6.78 10.59l2.98 27.1a10 10 0 0 0 9.94 8.91h56.14a21.29 21.29 0 0 1 21.26 21.26v72.97a484.7 484.7 0 0 1-17.87 2.94c.86-4.05 1.2-8.23 1-12.46-1.2-25.12-22.19-45.75-47.8-46.97a50.83 50.83 0 0 0-29.87 7.88 17.7 17.7 0 0 1-18.94 0 50.8 50.8 0 0 0-29.87-7.88c-25.61 1.22-46.6 21.84-47.8 46.96-.2 4.24.14 8.42 1 12.47a484.36 484.36 0 0 1-17.87-2.94v-24.9zm168.15 30.57c-20.7 2.14-42.24 3.23-64.14 3.23s-43.45-1.09-64.14-3.23a28.45 28.45 0 0 1-3.02-14.25c.7-14.93 13.34-27.2 28.77-27.93a30.9 30.9 0 0 1 18.17 4.77 37.76 37.76 0 0 0 40.44 0 30.94 30.94 0 0 1 18.17-4.77c15.43.73 28.06 13 28.77 27.93.23 5-.8 9.86-3.02 14.25zm-180.15 12.38a513.26 513.26 0 0 0 44.35 6.9c.14.03 47.3 3.95 71.66 3.95s71.98-3.99 72.35-4.07c.37 0 30.2-4.05 43.66-6.78a10 10 0 0 0 8-9.8v-20.75a320.88 320.88 0 0 1 23.21 6.7c24.9 8.26 38 16.5 44.43 21.65-6.43 5.16-19.53 13.4-44.43 21.66-40.02 13.28-92.3 20.6-147.22 20.6-54.91 0-107.2-7.32-147.23-20.6-24.9-8.27-38-16.5-44.42-21.66 6.42-5.15 19.53-13.39 44.42-21.65a320.37 320.37 0 0 1 23.21-6.7v20.75a10 10 0 0 0 8.01 9.8zm286.45 53.68c-45.37 17.01-105.9 26.38-170.44 26.38-64.54 0-125.07-9.37-170.44-26.38C43.9 432.74 20 412.37 20 392.49c0-26.92 44.5-54.23 111.99-69.44v20.51a348.66 348.66 0 0 0-29.52 8.3c-35.75 11.87-54.7 26.03-60.53 35.33a10 10 0 0 0 0 10.61c5.82 9.3 24.78 23.46 60.53 35.33 42 13.94 96.53 21.62 153.53 21.62s111.52-7.68 153.53-21.62c35.75-11.87 54.7-26.03 60.53-35.33a10 10 0 0 0 0-10.61c-5.82-9.3-24.78-23.46-60.53-35.33-9.2-3.06-19.1-5.84-29.52-8.3v-20.51C447.5 338.25 492 365.57 492 392.49c0 19.89-23.9 40.25-65.56 55.88z"/></svg>