<svg xmlns="http://www.w3.org/2000/svg" width="487.81" height="487.81"><path d="M150.46 109.52h150.51a7.16 7.16 0 0 0 0-14.32h-150.5a7.16 7.16 0 1 0 0 14.32zM15.85 179.54h150.51a7.16 7.16 0 1 0 0-14.32H15.86a7.16 7.16 0 1 0 0 14.32zM56.26 253.21c0 3.96 3.2 7.17 7.16 7.17h150.51a7.16 7.16 0 0 0 0-14.33H63.42a7.16 7.16 0 0 0-7.16 7.16zM142.4 336.44H7.16a7.16 7.16 0 1 0 0 14.32H142.4a7.16 7.16 0 1 0 0-14.32zM385.73 154.42a39.11 39.11 0 1 0 0-78.23 39.11 39.11 0 0 0 0 78.23z"/><path d="M450.07 143.16c-22.46 31.45-52.54 35.1-84.9 15.89-2.2-1.31-11.98-6.7-14.14-7.98-52.06-30.9-104.06-18.79-138.93 30.05-14.82 20.77 19.45 40.46 34.1 19.93 18.02-25.23 40.93-32.53 65.99-24.54-12.83 22.27-24.05 44.4-39.88 75.85-15.83 31.45-50.78 56.56-84.37 36.92-24.23-14.16-46.09 20.65-21.93 34.77 45.86 26.8 99.62 10.35 127.07-24.5.95.52 1.96.98 3.06 1.36 22.42 7.81 51.82 28.61 60.77 35.98 8.95 7.38 24.34 44.93 33.47 63.8 11.08 22.89 46.87 6.21 35.75-16.78-10.36-21.4-27.74-64.13-41.3-74.94-10.87-8.67-31.98-24.8-49.89-33.95a1566.63 1566.63 0 0 1 38.01-69.5c42.33 12.97 82.56-2.3 111.22-42.44 14.83-20.77-19.44-40.46-34.1-19.93z"/></svg>