<svg xmlns="http://www.w3.org/2000/svg" viewBox="0 0 503.77 503.77"><g fill="#010002"><path d="M22.73 228.54c.21 10.66 11.1 18.99 26.03 20.02 7.39 1.71 28.69 2 86.2 2.05 19.77.01 40.2.03 55.8.28h.13c.6 0 1.2-.07 1.78-.2 29.22-6.75 59.07-13.4 87.94-19.84 57.85-12.9 117.68-26.25 175.64-41.02l.37-.1c22.41-6.89 49.1-29.47 45.67-43.13-5.34-21.3-53.6-31.14-101.36-20.64-21.61 5-68.05 15.82-92.4 21.6-15.91-1.43-144.68-56.99-173.61-70.12-1.6-.73-3.4-.9-5.12-.5-6.05 1.45-10.67 2.5-15.3 3.54-4.65 1.05-9.3 2.1-15.36 3.55a7.93 7.93 0 0 0-2.54 14.32c16.46 10.9 65.3 43.98 108.74 73.88l-4.8 1.16c-13.97 3.36-23.43 5.64-43.83 10.35l-44.98-4.2-78.24-51.23a7.89 7.89 0 0 0-6.23-1.07l-21.22 5.19a7.93 7.93 0 0 0-5.16 11.34l35.24 68.25c-9.85 3.6-13.5 10.4-13.39 16.52zm-3.13-83.1l8.08-1.98 77 50.43a7.94 7.94 0 0 0 3.62 1.26l48.21 4.5c.84.08 1.7.02 2.52-.17a4075.2 4075.2 0 0 0 45.21-10.67l22.07-5.3a7.93 7.93 0 0 0 2.67-14.23c-37.31-25.82-82.43-56.5-108.34-73.93 3.15-.71 6.41-1.46 10.21-2.35 10.9 4.84 48.96 21.53 86.4 37.15 84.6 35.31 90.43 33.93 94.27 33 24.12-5.73 71.18-16.7 92.9-21.71 46.09-10.15 78 1.67 82.1 8.15-2.5 5.46-17 19.52-34.38 24.92-57.67 14.7-117.3 28-174.99 40.85-28.58 6.38-58.13 12.97-87.1 19.65a4122.8 4122.8 0 0 0-55.08-.26c-32.04-.03-75.84-.06-82.23-1.5a7.97 7.97 0 0 0-2.33-.48c-7.25-.37-10.81-3.14-11.66-4.36.88-.82 3.71-2.37 9.89-2.93a7.93 7.93 0 0 0 6.33-11.53l-35.37-68.5zM495.84 411.18H12.98a7.93 7.93 0 1 0 0 15.86h482.86a7.93 7.93 0 1 0 0-15.86z"/></g></svg>