<svg xmlns="http://www.w3.org/2000/svg" viewBox="0 0 455 455"><path d="M425.17 67.17H29.83A29.86 29.86 0 0 0 0 97v152.67a7.5 7.5 0 0 0 7.5 7.5h440a7.5 7.5 0 0 0 7.5-7.5V97a29.86 29.86 0 0 0-29.83-29.83zm-392.67 15h390v9.5a9 9 0 0 1-8.99 9H41.49a9 9 0 0 1-8.99-9v-9.5zm390 122.5h-390v-1.01a9 9 0 0 1 8.99-9h372.02a9 9 0 0 1 8.99 9v1zm-390 10h390v10h-390v-10zm0 20h390v7.5h-390v-7.5zm407.5 7.5h-7.5v-38.51a19.01 19.01 0 0 0-18.99-19H41.49a19.01 19.01 0 0 0-18.99 19v38.5H15V97c0-5.51 3.03-10.32 7.5-12.88v7.56a19.01 19.01 0 0 0 18.99 18.99h372.02a19.01 19.01 0 0 0 18.99-19v-7.55A14.83 14.83 0 0 1 440 97v145.17z"/><path d="M250.5 164.67h-46a5 5 0 1 0 0 10h46a5 5 0 1 0 0-10zM401.5 164.67a5 5 0 1 0 0 0zM378.5 164.67a5 5 0 1 0 0 0zM186.32 289.94a5 5 0 1 0-8.72-4.89 54.06 54.06 0 0 0 0 52.56 44 44 0 0 1 0 42.78 5 5 0 0 0 8.72 4.89 54.07 54.07 0 0 0 0-52.56 44 44 0 0 1 0-42.78zM231.86 289.94a5 5 0 1 0-8.72-4.89 54.06 54.06 0 0 0 0 52.56 44 44 0 0 1 0 42.78 5 5 0 0 0 8.72 4.89 54.07 54.07 0 0 0 0-52.56 44 44 0 0 1 0-42.78zM277.4 289.94a5 5 0 1 0-8.72-4.89 54.06 54.06 0 0 0 0 52.56 44 44 0 0 1 0 42.78 5 5 0 0 0 8.72 4.89 54.06 54.06 0 0 0 0-52.56 44 44 0 0 1 0-42.78z"/></svg>