<svg xmlns="http://www.w3.org/2000/svg" width="404.98" height="404.98"><path d="M389.98 12.57H15a15 15 0 0 0-15 15v104.24a15 15 0 0 0 15 15h32.63l4.66-30H30V42.58h344.98v74.23h-22.3l4.67 30h32.63a15 15 0 0 0 15-15V27.58a15 15 0 0 0-15-15z"/><path d="M369.91 315.43c-12.3-79.18-24.62-158.36-36.94-237.53-2-12.94-12.6-22.7-24.64-22.7H96.65c-12.04 0-22.63 9.76-24.65 22.7L54.86 188.16 27.34 365.1a23.08 23.08 0 0 0 5.26 18.6c4.75 5.53 11.94 8.7 19.74 8.7H352.64c7.8 0 15-3.17 19.73-8.7a23.08 23.08 0 0 0 5.26-18.6l-7.72-49.67zM192.96 362.4H58.13L84.5 192.77 101.23 85.2h94.31l-2.57 277.2zm97.12 0L266.41 85.2h37.34l36.52 234.83 6.59 42.37h-56.78z"/></svg>