<svg xmlns="http://www.w3.org/2000/svg" viewBox="0 0 480.06 480.06"><path d="M312.02 103.68l16-.09.09 16-16 .09z"/><path d="M472.06 255.4h-113.6l9.6-143.47a8.08 8.08 0 0 0-2.15-6.01 8.75 8.75 0 0 0-5.85-2.52l-16 .1.08 16h7.4l-1.9 28.6-23.2 12.88a88.33 88.33 0 0 1-78.4 3.45v-44.45l48.04-.25-.08-16-47.94.25V67.8l84.3-53.6-8.6-13.55-88 56a8 8 0 0 0-3.7 6.75v40.66l-111.96.58a8 8 0 0 0-7.94 8.53l8.9 133.52a136.52 136.52 0 0 0-11.2 26.76 79.52 79.52 0 0 0-69.32-40.72 8 8 0 0 0-8 8 78.98 78.98 0 0 0 13.12 43.66 44.3 44.3 0 0 0-9.6 6.4l-2.32 2.05a99.2 99.2 0 0 0-30.48 99.73l4.89 18.9a99.52 99.52 0 0 0 41.2 57.91 56.05 56.05 0 0 0 58.77 2.28l-.44-.8a194.46 194.46 0 0 0 46.03 7.78c1.6.08 3.2.08 4.85.1v.66h105.5c119.19.11 215.9-96.42 216-215.61v-.39a8 8 0 0 0-8-8zM355.4 275.76v-4.36h79.67a171.6 171.6 0 0 1-101.86 148.74 169.69 169.69 0 0 1-46.54 13.05 183.6 183.6 0 0 0 31.5-35.6 216.66 216.66 0 0 0 37.23-121.82zm-123.34-155.7v38.68c-26.24-7.27-54.29-4-78.14 9.15l-21.3 11.83-3.93-59.13 103.37-.53zM145.2 238.95l.98-1.26-10.22-7.88-2.17-32.41 27.86-15.53a88.3 88.3 0 0 1 79.05-3.2 104.27 104.27 0 0 0 93.45-3.76l14.14-7.85-3.59 53.8a26.7 26.7 0 0 0-5.8-3.4l-11.96-5a22.67 22.67 0 0 0-19.7 1.05 23.15 23.15 0 0 0-11.71 16.45 211.13 211.13 0 0 1-72.28 125.78 99.05 99.05 0 0 0-32.9-62.92l-2.32-2.05a43.52 43.52 0 0 0-56.95-.8l-10.07 8.4a119.96 119.96 0 0 1 24.19-59.42zm-41.73 64.7a63.62 63.62 0 0 1-54.34-54.34 63.66 63.66 0 0 1 54.34 54.34zM58.22 456.08a83.58 83.58 0 0 1-34.59-48.63l-4.9-18.88a83.29 83.29 0 0 1 25.65-83.75l2.32-2.05a27.8 27.8 0 0 1 9.7-5.37 79.2 79.2 0 0 0 55.66 22.8 7.87 7.87 0 0 0 1.5-.3c4.55-.29 8.9-2 12.41-4.9l15.32-12.8a27.6 27.6 0 0 1 36.13.52l2.32 2.04a83.15 83.15 0 0 1 28.19 62.52A211.3 211.3 0 0 1 102.46 405l-35.43 2.67a8 8 0 0 0-7.4 8v29.14a8 8 0 0 0 4 6.9l1.1.66c6.56 3.8 13.32 7.22 20.26 10.23a40.23 40.23 0 0 1-26.77-6.52zm96.24 6.57v.01a179.31 179.31 0 0 1-78.8-22.5v-17.1l28-2.1A228.06 228.06 0 0 0 311.3 232.72a7.2 7.2 0 0 1 3.64-5.16c1.8-1 3.95-1.12 5.85-.32l11.95 5a10.74 10.74 0 0 1 6.63 9.95v33.6a200.8 200.8 0 0 1-34.48 112.86 169.96 169.96 0 0 1-150.43 74zm109.6.75h-25.5c8.84-3.8 17.37-8.29 25.5-13.43v.75c26.05.05 51.82-5.39 75.63-15.96A187.6 187.6 0 0 0 451.08 271.4h12.82c-4.19 107.31-92.45 192.11-199.84 192z"/><path d="M368.06 287.4h16v16h-16zM344.06 367.4h16v16h-16zM368.06 335.4h16v16h-16z"/></svg>