<svg xmlns="http://www.w3.org/2000/svg" viewBox="0 0 480 480"><path d="M232 224h16v16h-16zM216 256h48v16h-48zM408.42 399.98c-3.03-.01-6.05.26-9.02.82a47.93 47.93 0 0 0-94.8 0 45.73 45.73 0 0 0-17.2 0 47.93 47.93 0 0 0-94.8 0 45.73 45.73 0 0 0-17.2 0 47.93 47.93 0 0 0-94.8 0A47.8 47.8 0 0 0 24 448v24a8 8 0 0 0 8 8h80a8 8 0 0 0 8-8v-24a48 48 0 0 0-.72-8h17.44a48 48 0 0 0-.72 8v24a8 8 0 0 0 8 8h80a8 8 0 0 0 8-8v-24a48 48 0 0 0-.72-8h17.44a48 48 0 0 0-.72 8v24a8 8 0 0 0 8 8h80a8 8 0 0 0 8-8v-24a48 48 0 0 0-.72-8h17.44a48 48 0 0 0-.72 8v24a8 8 0 0 0 8 8h80a8 8 0 0 0 8-8v-24a47.8 47.8 0 0 0-47.58-48.02zM104 464H40v-16a32 32 0 0 1 64 0v16zm38.5-40h-29a48.23 48.23 0 0 0-17.36-17.42 31.88 31.88 0 0 1 63.72 0A48.23 48.23 0 0 0 142.5 424zm73.5 40h-64v-16a32 32 0 0 1 64 0v16zm38.5-40h-29a48.23 48.23 0 0 0-17.36-17.42 31.88 31.88 0 0 1 63.72 0A48.23 48.23 0 0 0 254.5 424zm73.5 40h-64v-16a32 32 0 0 1 64 0v16zm38.5-40h-29a48.23 48.23 0 0 0-17.36-17.42 31.88 31.88 0 0 1 63.72 0A48.23 48.23 0 0 0 366.5 424zm73.5 40h-64v-16a32 32 0 0 1 64 0v16z"/><path d="M472 0H8a8 8 0 0 0-8 8v32a8 8 0 0 0 8 8h16v216a8 8 0 0 0 8 8h146.98l3.7 24H176a8 8 0 0 0-8 8v32a8 8 0 0 0 8 8h128a8 8 0 0 0 8-8v-32a8 8 0 0 0-8-8h-6.67l3.69-24H448a8 8 0 0 0 8-8V48h16a8 8 0 0 0 8-8V8a8 8 0 0 0-8-8zM296 328H184v-16h112v16zM185.33 208h109.34l-13.53 88h-82.28l-13.53-88zm-27.08-16l-4-16h171.5l-4 16h-163.5zM440 256H303.48l7.38-48H328a8 8 0 0 0 7.76-6.06l8-32A8 8 0 0 0 336 160h-16v-24a8 8 0 0 0-2.34-5.66l-16.06-16.06A23.6 23.6 0 0 0 304 104a24 24 0 1 0-24 24 23.6 23.6 0 0 0 10.28-2.4L304 139.31V160H176v-20.69l13.72-13.71A23.6 23.6 0 0 0 200 128a24 24 0 1 0-24-24 23.6 23.6 0 0 0 2.4 10.28l-16.06 16.06A8 8 0 0 0 160 136v24h-16a8 8 0 0 0-7.76 9.94l8 32A8 8 0 0 0 152 208h17.14l7.38 48H40V48h400v208zM288 104a8 8 0 1 1-16 0 8 8 0 0 1 16 0zm-96 0a8 8 0 1 1 16 0 8 8 0 0 1-16 0zm272-72H16V16h448v16z"/></svg>