<svg xmlns="http://www.w3.org/2000/svg" viewBox="0 0 529.297 529.297"><path d="M102.204 164.707c-5.712-5.712-8.568-12.648-8.568-20.808s2.856-15.096 8.568-20.808 12.648-8.568 20.808-8.568 15.096 2.856 20.808 8.568 8.568 12.648 8.568 20.808-2.856 15.096-8.568 20.808-12.648 8.568-20.808 8.568-15.096-2.856-20.808-8.568zM64.566 305.161c1.836 1.428 3.978 2.143 6.426 2.143s4.59-.715 6.426-2.143 2.754-3.773 2.754-7.037V218.563c0-1.224.612-2.04 1.836-2.448s2.244-.612 3.06-.612 1.836.204 3.06.612c1.224.408 1.836 1.224 1.836 2.448v182.988c0 3.672 1.326 6.732 3.978 9.18s5.814 3.674 9.486 3.674c3.672 0 6.834-1.227 9.486-3.674 2.652-2.445 3.978-5.508 3.978-9.18V289.552c0-2.041.816-3.365 2.448-3.979s2.856-.918 3.672-.918 1.938.307 3.366.918 2.142 1.938 2.142 3.979v111.999c0 3.672 1.326 6.732 3.978 9.18 2.652 2.447 5.814 3.674 9.486 3.674 4.08 0 7.344-1.227 9.792-3.674 2.448-2.445 3.672-5.508 3.672-9.18l.612-182.988c0-1.224.612-2.04 1.836-2.448s2.244-.612 3.06-.612 1.836.204 3.06.612 1.836 1.224 1.836 2.448V298.124c0 3.264.918 5.609 2.754 7.037s3.876 2.143 6.12 2.143 4.284-.715 6.12-2.143 2.754-3.773 2.754-7.037v-84.457c0-8.16-2.754-15.504-8.262-22.032s-12.954-9.792-22.338-9.792H88.74c-9.384 0-16.218 3.264-20.502 9.792-4.284 6.528-6.426 13.872-6.426 22.032v84.457c0 3.263.918 5.609 2.754 7.037zM381.888 67.093c3.672 3.468 5.508 7.854 5.508 13.158v364.751c0 5.305-1.836 9.691-5.508 13.158-3.672 3.469-8.16 5.203-13.464 5.203H18.972c-5.304 0-9.792-1.734-13.464-5.203C1.836 454.694 0 450.307 0 445.002V80.251c0-5.304 1.836-9.69 5.508-13.158 3.672-3.468 8.16-5.202 13.464-5.202h349.452c5.304 0 9.792 1.734 13.464 5.202zm-25.092 25.399H30.6v340.27h326.196V92.492zm-93.023 80.783c8.16 0 15.096-2.856 20.808-8.568s8.565-12.648 8.565-20.808-2.854-15.096-8.565-20.808c-5.711-5.712-12.648-8.568-20.808-8.568s-15.096 2.856-20.808 8.568-8.568 12.648-8.568 20.808 2.856 15.096 8.568 20.808 12.648 8.568 20.808 8.568zm-58.447 131.886c1.836 1.428 3.978 2.143 6.426 2.143s4.59-.715 6.426-2.143 2.754-3.773 2.754-7.037V218.563c0-1.224.612-2.04 1.836-2.448s2.244-.612 3.06-.612 1.836.204 3.06.612 1.836 1.224 1.836 2.448v182.988c0 3.672 1.326 6.732 3.978 9.18 2.652 2.447 5.814 3.674 9.486 3.674s6.834-1.227 9.486-3.674c2.652-2.445 3.978-5.508 3.978-9.18V289.552c0-2.041.816-3.365 2.448-3.979 1.632-.611 2.856-.918 3.672-.918s2.04.307 3.671.918c1.633.611 2.449 1.938 2.449 3.979v111.999c0 3.672 1.223 6.732 3.669 9.18 2.448 2.447 5.712 3.674 9.792 3.674 3.675 0 6.834-1.227 9.486-3.674 2.652-2.445 3.979-5.508 3.979-9.18V218.563c0-1.224.609-2.04 1.836-2.448 1.224-.408 2.242-.612 3.06-.612s1.836.204 3.063.612c1.224.408 1.836 1.224 1.836 2.448V298.124c0 3.264.918 5.609 2.754 7.037s3.978 2.143 6.426 2.143 4.59-.715 6.426-2.143 2.754-3.773 2.754-7.037v-84.457c0-8.16-2.854-15.504-8.565-22.032-5.716-6.528-13.264-9.792-22.646-9.792h-63.65c-9.384 0-16.32 3.264-20.808 9.792-4.488 6.528-6.732 13.872-6.732 22.032v84.457c0 3.263.918 5.609 2.754 7.037zm318.5 86.724h-27.432v-11.584-79.898s.139-3.775-4.759-3.775h-41.75c-6.856 0-5.655 4.51-5.655 4.51v92.656h-29.696c-8.651 0-.68 7.537-.68 7.537l52.682 63.668s4.31 5.057 8.845.51c6.229-6.246 51.036-65.729 51.036-65.729s7.96-7.895-2.591-7.895zM415.975 143.146h27.432V234.63s-.139 3.774 4.759 3.774h41.75c6.856 0 5.655-4.51 5.655-4.51v-79.737-12.918h29.696c8.651 0 .68-7.537.68-7.537l-52.682-63.668s-4.31-5.058-8.845-.511c-6.229 6.247-51.036 65.73-51.036 65.73s-7.96 7.893 2.591 7.893z" fill="#010002"/></svg>