<svg xmlns="http://www.w3.org/2000/svg" viewBox="0 0 272.52 272.52"><path d="M193.26 118.06c-.88 0-1.78.12-2.68.37l-10.17 2.8-10.56-25.73c-3-7.28-11.84-13.22-19.72-13.22H51.28c-7.88 0-16.72 5.94-19.71 13.22l-10.55 25.7-10.05-2.77c-.9-.25-1.8-.37-2.67-.37-4.81 0-8.3 3.67-8.3 8.73v6c0 5.9 4.8 10.7 10.71 10.7h1.15l-1.7 4.16c-2.78 6.77-5.05 18.24-5.05 25.56v51.11c0 5.91 4.81 10.72 10.72 10.72h13.99c5.9 0 10.7-4.81 10.7-10.72v-12.76H160.9v12.76c0 5.91 4.8 10.72 10.7 10.72h14c5.9 0 10.7-4.81 10.7-10.72v-51.11c0-7.32-2.26-18.79-5.04-25.56l-1.7-4.15h1.3c5.9 0 10.7-4.8 10.7-10.71v-6c0-5.06-3.48-8.73-8.29-8.73zM28.7 137.68l15.98-38.92c1.79-4.36 7.1-7.92 11.82-7.92h88.42c4.71 0 10.03 3.56 11.82 7.92l15.98 38.92c1.79 4.36-.6 7.93-5.32 7.93H34.01c-4.71 0-7.1-3.57-5.31-7.93zm35.66 49.23a4.3 4.3 0 0 1-4.28 4.28H29.73a4.3 4.3 0 0 1-4.29-4.28v-14.57a4.3 4.3 0 0 1 4.29-4.28h30.35a4.3 4.3 0 0 1 4.29 4.28v14.57zm111.32 0a4.3 4.3 0 0 1-4.28 4.28h-30.35a4.3 4.3 0 0 1-4.29-4.28v-14.57a4.3 4.3 0 0 1 4.29-4.28h30.35a4.3 4.3 0 0 1 4.28 4.28v14.57z"/><path d="M259.13 37.49h-50.74c-7.39 0-13.4 6-13.4 13.4v50.73c0 7.39 6.01 13.4 13.4 13.4h20.37v113.87a5 5 0 1 0 10 0V115.02h20.36c7.4 0 13.4-6.01 13.4-13.4V50.88c0-7.38-6-13.4-13.4-13.4zm-11.5 42.06c-2.91 2.63-7.21 3.96-12.77 3.96h-7.35c-.88 0-1.6.72-1.6 1.6v12.4c0 1.34-1.1 2.43-2.44 2.43h-5.56a2.44 2.44 0 0 1-2.44-2.44V55c0-1.34 1.1-2.44 2.44-2.44h14.01c9.29 0 12.75 1.4 15.6 3.82 3 2.55 4.53 6.45 4.53 11.6 0 5.04-1.49 8.93-4.42 11.57z"/><path d="M239.68 62.83c-1.35-1.03-3.75-1.55-7.13-1.55h-5.04c-.88 0-1.6.72-1.6 1.6v10.18c0 .88.72 1.6 1.6 1.6h3.02c1.11 0 2.9-.08 4-.18 1.06-.1 4.05-.53 5.15-1.36 1.32-1 1.99-2.73 1.99-5.13 0-2.43-.67-4.17-1.99-5.16z"/></svg>