<svg xmlns="http://www.w3.org/2000/svg" viewBox="0 0 512 512"><path d="M181.333 0C151.936 0 128 23.936 128 53.333s23.936 53.333 53.333 53.333 53.333-23.936 53.333-53.333S210.731 0 181.333 0zm0 85.333c-17.643 0-32-14.357-32-32s14.357-32 32-32 32 14.357 32 32-14.357 32-32 32zM181.333 128c-5.888 0-10.667 4.779-10.667 10.667V160c0 5.888 4.779 10.667 10.667 10.667S192 165.888 192 160v-21.333c0-5.888-4.779-10.667-10.667-10.667zM181.333 192c-5.888 0-10.667 4.779-10.667 10.667v42.667c0 5.888 4.779 10.667 10.667 10.667S192 251.221 192 245.333v-42.667c0-5.887-4.779-10.666-10.667-10.666z"/><path d="M269.248 244.011l-8.661-69.291C257.28 148.075 234.517 128 207.68 128h-52.672c-26.837 0-49.6 20.075-52.928 46.72l-8.661 69.291c-.725 5.845 3.413 11.179 9.259 11.904 5.931.683 11.157-3.413 11.904-9.259l8.661-69.291c2.005-15.979 15.659-28.032 31.765-28.032h52.651c16.107 0 29.76 12.053 31.765 28.032l8.661 69.291A10.676 10.676 0 0 0 258.666 256a9.38 9.38 0 0 0 1.323-.085c5.846-.726 9.984-6.059 9.259-11.904z"/><path d="M469.333 234.667H42.667C19.136 234.667 0 253.803 0 277.333 0 300.864 19.136 320 42.667 320h426.667c23.53 0 42.666-19.136 42.666-42.667 0-23.53-19.136-42.666-42.667-42.666zm0 64H42.667c-11.755 0-21.333-9.579-21.333-21.333 0-11.755 9.579-21.333 21.333-21.333h426.667c11.755 0 21.333 9.579 21.333 21.333 0 11.754-9.579 21.333-21.334 21.333z"/><path d="M459.84 298.731c-5.739-.619-11.115 3.584-11.776 9.429l-20.288 182.507H84.224L63.936 308.16c-.64-5.867-5.803-10.069-11.776-9.429-5.867.661-10.069 5.931-9.429 11.776l21.333 192A10.652 10.652 0 0 0 74.667 512h362.667c5.44 0 10.005-4.075 10.603-9.493l21.333-192c.639-5.846-3.585-11.115-9.43-11.776zM373.333 192C343.936 192 320 215.936 320 245.333c0 5.888 4.779 10.667 10.667 10.667s10.667-4.779 10.667-10.667c0-17.643 14.357-32 32-32s32 14.357 32 32c0 5.888 4.779 10.667 10.667 10.667s10.667-4.779 10.667-10.667C426.667 215.936 402.731 192 373.333 192z"/><path d="M373.333 170.667c-5.888 0-10.667 4.779-10.667 10.667v21.333c0 5.888 4.779 10.667 10.667 10.667S384 208.555 384 202.667v-21.333c0-5.889-4.779-10.667-10.667-10.667z"/></svg>