<svg xmlns="http://www.w3.org/2000/svg" width="311.99" height="311.99"><path d="M78 197.6H46.8v-46.8H31.2V208H78zM104.36 211.83c7.73 0 13.49-2.34 17.28-7.03 3.8-4.68 5.7-10.32 5.7-16.9 0-6.5-1.9-12.11-5.7-16.86-3.8-4.76-9.56-7.13-17.28-7.13-7.73 0-13.49 2.37-17.28 7.13-3.8 4.76-5.7 10.38-5.7 16.85 0 6.6 1.9 12.23 5.7 16.92 3.8 4.68 9.55 7.02 17.28 7.02zm-7.97-34.34c1.85-2.43 4.5-3.65 7.93-3.65 3.44 0 6.08 1.22 7.92 3.65 1.84 2.43 2.77 5.9 2.77 10.4s-.93 7.97-2.77 10.41c-1.84 2.44-4.48 3.67-7.92 3.67-3.43 0-6.08-1.22-7.93-3.67-1.86-2.44-2.8-5.91-2.8-10.41s.94-7.97 2.8-10.4zM145.6 204.65c5.2 2.2 3.7 3.74 5.06 4.62 2.26 1.48 5.59 2.23 9.33 2.23 5.93 0 10.73-2.3 14.04-6.89 3.32-4.59 5.06-10.38 5.06-17.36 0-6.73-1.64-12.23-5-16.5-3.36-4.26-7.99-6.39-13.95-6.39-3.29 0-6.74.69-8.87 2.07-1.8 1.1-.47 2.69-5.67 4.77v-20.4h-10.4V208h10.4v-3.35zm2.4-24.2c1.62-3.88 4.57-5.82 8.86-5.82 4.24 0 7.15 1.98 8.73 5.94.84 2.09 1.26 4.73 1.26 7.92 0 3.98-.85 7.2-2.54 9.65a8.16 8.16 0 0 1-7.11 3.67c-3.53 0-6.14-1.26-7.86-3.8-1.72-2.52-2.58-5.72-2.58-9.56 0-3.28.42-5.95 1.25-8zM197.6 204.65c0 2.2 3.5 3.74 4.85 4.62 2.27 1.48 5.5 2.23 9.23 2.23 5.94 0 10.68-2.3 14-6.89 3.32-4.59 5.04-10.38 5.04-17.36 0-6.73-1.66-12.23-5.02-16.5-3.37-4.26-8-6.39-13.95-6.39-3.3 0-6.54.69-8.67 2.07-1.8 1.1-5.49 2.69-5.49 4.77v-20.4h-10.4V208h10.4v-3.35zm2-24.2c1.6-3.88 4.57-5.82 8.86-5.82 4.25 0 7.15 1.98 8.73 5.94.84 2.09 1.25 4.73 1.25 7.92 0 3.98-.84 7.2-2.54 9.65a8.14 8.14 0 0 1-7.1 3.67c-3.53 0-6.15-1.26-7.86-3.8-1.72-2.52-2.58-5.72-2.58-9.56 0-3.28.41-5.95 1.24-8zM250.06 215.01c-.6 1.48-1.24 2.46-1.92 2.93-.72.49-1.6.8-2.65.94-1.04.14-2.9.18-4.05.13l-2.25-.09v9.4c5.2.09 2.98.14 3.6.15.65.02 1.87.02 2.91.02 5.2 0 8.86-1.02 10.6-3.07 1.73-2.05 4.19-6.81 7.16-15.33l15.5-43.7h-12.49l-9.28 33.17-9.82-33.16H234.3l16.52 46.4c.08.34-.17.72-.76 2.21zM36.4 223.59h187.19v15.6H36.4z"/><path d="M301.6 62.4a10.4 10.4 0 0 0 0-20.8H10.4a10.4 10.4 0 0 0 0 20.8h26v52h-13C10.5 114.4 0 124.9 0 137.8V247c0 12.89 10.5 23.4 23.4 23.4h265.2c12.89 0 23.39-10.51 23.39-23.4V137.8c0-12.9-10.5-23.4-23.4-23.4h-18.2v-52h31.2zm-5.2 75.4V247c0 4.3-3.5 7.8-7.8 7.8H23.4a7.8 7.8 0 0 1-7.8-7.8V137.8c0-4.3 3.5-7.8 7.8-7.8h265.2c4.3 0 7.8 3.5 7.8 7.8zm-41.6-23.4H52v-52h202.8v52z"/></svg>