<svg xmlns="http://www.w3.org/2000/svg" viewBox="0 0 392.42 392.42"><path d="M381.47 153.62h-21.56a41.59 41.59 0 0 0-16.75-28.84V118a38.01 38.01 0 0 0-37.97-37.97h-16.48a38.01 38.01 0 0 0-37.97 37.97v29.01a41.3 41.3 0 0 0-3.11-7.84V118a38.01 38.01 0 0 0-37.97-37.97h-16.49a38.01 38.01 0 0 0-37.97 37.97v21.17a41.28 41.28 0 0 0-3.1 7.84v-29.01a38.01 38.01 0 0 0-37.98-37.97H97.64a38.01 38.01 0 0 0-37.97 37.97v6.77a41.59 41.59 0 0 0-16.75 28.84H10.95A10.96 10.96 0 0 0 0 164.57v121.15a10 10 0 0 0 20 0v-87.38h22.65v32.98a10 10 0 0 0 10 10h7.02v5.37a10 10 0 0 0 0 19.98v35.71a10 10 0 0 0 20 0v-35.7h27.74v35.7a10 10 0 0 0 20 0v-35.71a10 10 0 0 0 0-19.98v-5.37h7.02a10 10 0 0 0 10-10v-32.98h6.1v32.98a10 10 0 0 0 10 10h7.01v5.37a10 10 0 0 0 0 19.98v35.71a10 10 0 0 0 20 0v-35.7h27.75v35.7a10 10 0 0 0 20 0v-35.71a10 10 0 0 0 0-19.98v-5.37h7.02a10 10 0 0 0 10-10v-32.98h6.1v32.98a10 10 0 0 0 10 10h7v5.37a10 10 0 0 0 0 19.98v35.71a10 10 0 0 0 20 0v-35.7h27.76v35.7a10 10 0 0 0 20 0v-35.71a10 10 0 0 0 0-19.98v-5.37h7.01a10 10 0 0 0 10-10v-32.98h12.25v87.38a10 10 0 0 0 20 0V164.57c0-6.04-4.92-10.95-10.96-10.95zm-58.3 87.7v5.36H295.4v-5.36h27.75zm17.01-20H278.4V158.3a21.6 21.6 0 0 1 21.58-21.58h18.62a21.6 21.6 0 0 1 21.58 21.58v63.02zM193.17 100.04h16.49c9.9 0 17.97 8.06 17.97 17.97v2.32a41.32 41.32 0 0 0-16.9-3.61H192.1c-6.02 0-11.74 1.3-16.9 3.6v-2.31c0-9.91 8.05-17.97 17.96-17.97zm112.02 0c9.56 0 17.38 7.5 17.92 16.93a41.77 41.77 0 0 0-4.51-.25h-18.62c-11.4 0-21.73 4.6-29.24 12.05v-10.76c0-9.9 8.06-17.97 17.97-17.97h16.48zm-160.76 73.58h6.1v4.72h-6.1v-4.72zm107.88 0h6.09v4.72h-6.1v-4.72zm-120.22-55.61v10.76a41.44 41.44 0 0 0-29.24-12.05H84.23c-1.52 0-3.03.09-4.51.25a17.98 17.98 0 0 1 17.91-16.93h16.5c9.9 0 17.96 8.06 17.96 17.97zM20 173.62h22.65v4.72H20v-4.72zm87.41 67.7v5.36H79.67v-5.36h27.74zm17.02-20H62.65V158.3a21.6 21.6 0 0 1 21.58-21.58h18.62a21.6 21.6 0 0 1 21.58 21.58v63.02zm90.86 20v5.36h-27.75v-5.36h27.75zm17.02-20h-61.78V158.3a21.6 21.6 0 0 1 21.58-21.58h18.61a21.6 21.6 0 0 1 21.58 21.58v63.02zm127.87-47.7h12.24v4.72h-12.24v-4.72z"/></svg>