<svg xmlns="http://www.w3.org/2000/svg" viewBox="0 0 411.04 411.04"><path d="M405.04 90H350.16V50a6 6 0 0 0-6-6H36.4A36.48 36.48 0 0 0 0 80.4v250.24a36.48 36.48 0 0 0 36.4 36.4h338.24a36.48 36.48 0 0 0 36.4-36.4V96a6 6 0 0 0-6-6zM36.4 355.12a24.48 24.48 0 0 1-24.4-24.4V80.64a24.48 24.48 0 0 1 24.4-24.4h301.76v274.4a36.48 36.48 0 0 0 9.44 24.4l-311.2.08zm362.24-24.48a24.48 24.48 0 0 1-24 24.48 24 24 0 0 1-24.4-24.4V102.08h48.4v228.56z"/><path d="M93.28 80.72a4.4 4.4 0 0 0-4.32 4.32v33.04L62.64 82.24a4.4 4.4 0 0 0-6.08-.96 4.32 4.32 0 0 0-1.76 3.68v46.72a4.4 4.4 0 0 0 4.72 4.48 4.48 4.48 0 0 0 4.32-4.4V98.4l25.76 35.68.4.48c.8 1 2 1.58 3.28 1.6a4.48 4.48 0 0 0 4.4-4.4V85.04a4.48 4.48 0 0 0-4.4-4.32zM142.64 127.28h-22V112.4h18.72a4.48 4.48 0 0 0 0-8.88h-18.72V88.8h22a4.56 4.56 0 0 0 4.4-4.48 4.48 4.48 0 0 0-4.4-4.4h-26.48a4.4 4.4 0 0 0-4.4 4.4v47.36a4.4 4.4 0 0 0 4.32 4.48h26.56a4.48 4.48 0 0 0 0-8.88zM227.44 80.88a4.48 4.48 0 0 0-5.84 2.32l-16 37.2-10.32-24.64a4.56 4.56 0 0 0-4.16-2.72 4.4 4.4 0 0 0-4.16 2.72l-10.32 24.64-16-37.2a4.4 4.4 0 0 0-8 3.36l23.76 46.8c.12.25.25.49.4.72v.48h.56c.2.2.45.37.72.48h2.56c.2-.06.43-.06.64 0l.64-.48h.48l.48-.48v-.72l10.48-24.88 10.56 24.88c-.04.24-.04.48 0 .72v.48h.56c.19.23.44.4.72.48h3.12s.48 0 .72-.48h.56v-.48c.18-.21.31-.46.4-.72l19.68-46.8a4.32 4.32 0 0 0-2.24-5.68zM285.44 112.24a18.8 18.8 0 0 0-8-6.64 48 48 0 0 0-11.12-3.52 27.67 27.67 0 0 1-10-3.52 8 8 0 0 1-2.16-2.08 3.84 3.84 0 0 1-.56-2.24 6.4 6.4 0 0 1 3.04-5.04 15.36 15.36 0 0 1 8.96-2.72 18.4 18.4 0 0 1 12.96 5.12 3.92 3.92 0 0 0 5.68-1.2 4.16 4.16 0 0 0-1.12-5.68 27.04 27.04 0 0 0-17.52-6.4 24 24 0 0 0-13.92 4.24 14.88 14.88 0 0 0-6.4 11.76c-.02 2.32.62 4.59 1.84 6.56a17.36 17.36 0 0 0 7.44 6.24 42.95 42.95 0 0 0 10.4 3.12c3.88.57 7.62 1.84 11.04 3.76.97.6 1.8 1.43 2.4 2.4.49.76.74 1.65.72 2.56a7.2 7.2 0 0 1-3.44 5.76c-2.95 2-6.44 3.03-10 2.96a26.16 26.16 0 0 1-15.36-6.16 4.16 4.16 0 0 0-5.84.56 4.24 4.24 0 0 0 .64 5.84 34.72 34.72 0 0 0 20.48 8.16c5.32.1 10.53-1.5 14.88-4.56a15.52 15.52 0 0 0 6.88-12.48c0-2.4-.67-4.75-1.92-6.8zM291.36 155.44H49.52a6 6 0 1 0 0 12h241.84a6 6 0 1 0 0-12zM264.64 204.08H49.52a6 6 0 1 0 0 12h215.12a6 6 0 1 0 0-12zM264.64 235.12H49.52a6 6 0 1 0 0 12h215.12a6 6 0 1 0 0-12zM264.64 266.08H49.52a6 6 0 1 0 0 12h215.12a6 6 0 1 0 0-12zM264.64 297.12H49.52a6 6 0 1 0 0 12h215.12a6 6 0 1 0 0-12z"/></svg>