<svg xmlns="http://www.w3.org/2000/svg" viewBox="0 0 512 512"><path d="M256 40.01a9.97 9.97 0 0 0-9.99 9.99 9.96 9.96 0 0 0 8.99 9.94A9.97 9.97 0 0 0 265.99 50a9.97 9.97 0 0 0-9.99-9.99z"/><path d="M456 60c-27.57 0-50-22.43-50-50a10 10 0 0 0-10-10H116a10 10 0 0 0-10 10c0 27.57-22.43 50-50 50a10 10 0 0 0-10 10v163.19c0 127.18 82.9 241.13 207.13 278.39a10.03 10.03 0 0 0 5.74 0C380.42 475.12 466 363.15 466 233.19V70a10 10 0 0 0-10-10zm-10 173.19c0 119.45-76.22 222.9-190 258.35A270.4 270.4 0 0 1 66 233.2V79.29A70.16 70.16 0 0 0 125.29 20H386.7A70.16 70.16 0 0 0 446 79.29v153.9z"/><path d="M420.01 92.49a90.08 90.08 0 0 1-46.5-46.5 10 10 0 0 0-9.16-5.99h-68.37a10 10 0 0 0 0 20h62.05A109.93 109.93 0 0 0 406 107.97V233.2c0 97.86-58.75 182.3-150 216.1-91.25-33.8-150-118.24-150-216.1V107.97A109.94 109.94 0 0 0 153.97 60h62.05a10 10 0 0 0 0-20h-68.37a10 10 0 0 0-9.16 5.99 90.08 90.08 0 0 1-46.5 46.5 10 10 0 0 0-5.99 9.16v131.54c0 107.21 66.31 200.65 166.66 236.17a10 10 0 0 0 6.68 0C359.6 433.87 426 340.49 426 233.19V101.65a10 10 0 0 0-5.99-9.16z"/><path d="M256 146c-49.63 0-90 40.37-90 90s40.37 90 90 90 90-40.37 90-90-40.37-90-90-90zm0 160c-38.6 0-70-31.4-70-70s31.4-70 70-70 70 31.4 70 70-31.4 70-70 70z"/><path d="M303.07 208.93a10 10 0 0 0-14.14 0L246 251.86l-12.93-12.93a10 10 0 0 0-14.14 14.14l20 20a9.98 9.98 0 0 0 14.14 0l50-50a10 10 0 0 0 0-14.14z"/></svg>