<svg xmlns="http://www.w3.org/2000/svg" viewBox="0 0 58.15 58.15"><path d="M40.08 29.15h-7.15a4 4 0 0 0-2.85-2.85V16.14a1 1 0 1 0-2 0V26.3a4 4 0 1 0 4.85 4.86h7.15a1 1 0 1 0 0-2zm-11 3a2 2 0 1 1 0-4 2 2 0 0 1 0 4z"/><path d="M50.19 9.76l4.1 4.1a1 1 0 0 0 1.4 0A8.13 8.13 0 0 0 44.22 2.38a1 1 0 0 0 0 1.4l4.56 4.57-1.7 1.7a26.89 26.89 0 0 0-36 0l-1.7-1.7 4.57-4.56a1 1 0 0 0 0-1.42A8.13 8.13 0 0 0 2.46 13.87a1 1 0 0 0 1.4 0l4.1-4.1 1.68 1.68a26.9 26.9 0 0 0-7.56 18.71c0 9.9 5.35 18.57 13.32 23.27l-3.03 3.03a1 1 0 1 0 1.41 1.41l3.45-3.45a26.83 26.83 0 0 0 23.69 0l3.45 3.45a1 1 0 0 0 1.41 0 1 1 0 0 0 0-1.41l-3.02-3.03a27.01 27.01 0 0 0 13.32-23.27 26.9 26.9 0 0 0-7.57-18.71l1.68-1.68zm4.1-5.97a6.13 6.13 0 0 1 .64 7.9L46.4 3.13a6.13 6.13 0 0 1 7.9.65zm-51.07 7.9a6.13 6.13 0 0 1 8.54-8.55l-8.54 8.54zm25.86 43.46c-13.79 0-25-11.21-25-25s11.21-25 25-25 25 11.22 25 25-11.22 25-25 25z"/><path d="M48.96 18.61a23.16 23.16 0 0 0-8.34-8.34c-.02 0-.03-.03-.04-.04-.02 0-.04 0-.06-.02a22.85 22.85 0 0 0-22.89 0l-.05.02-.05.04a23.16 23.16 0 0 0-8.33 8.34l-.04.04-.02.06a22.85 22.85 0 0 0 0 22.89c0 .02 0 .03.02.05l.05.07a23.18 23.18 0 0 0 8.32 8.31l.05.04c.02.02.05.02.08.03a22.85 22.85 0 0 0 22.84 0l.08-.03.04-.04c3.44-2 6.32-4.87 8.32-8.31l.06-.07.01-.05a22.85 22.85 0 0 0 0-22.9l-.01-.05-.04-.04zM40.42 47.8l-.48-.83a1 1 0 1 0-1.73 1l.48.83a20.84 20.84 0 0 1-8.61 2.3v-.95a1 1 0 1 0-2 0v.95c-3.1-.14-6.01-.95-8.62-2.3l.48-.83a1 1 0 0 0-1.73-1l-.48.83a21.13 21.13 0 0 1-6.3-6.3l.83-.48a1 1 0 0 0-1-1.73l-.83.48a20.84 20.84 0 0 1-2.3-8.62h.95a1 1 0 1 0 0-2h-.95c.14-3.09.95-6 2.3-8.6l.83.47a1 1 0 0 0 1.36-.36 1 1 0 0 0-.36-1.37l-.83-.48a21.14 21.14 0 0 1 6.3-6.3l.48.82a1 1 0 0 0 1.73-1l-.48-.83a20.84 20.84 0 0 1 8.62-2.3v.95a1 1 0 1 0 2 0V9.2c3.09.15 6 .96 8.6 2.3l-.47.83a1 1 0 0 0 1.73 1l.48-.82a21.13 21.13 0 0 1 6.3 6.3l-.83.48a1 1 0 0 0 1 1.73l.83-.48a20.84 20.84 0 0 1 2.3 8.61h-.95a1 1 0 1 0 0 2h.95c-.14 3.1-.95 6.01-2.3 8.61l-.83-.47a1 1 0 1 0-1 1.73l.83.47a21.1 21.1 0 0 1-6.3 6.3z"/></svg>