<svg xmlns="http://www.w3.org/2000/svg" width="611.989" height="611.988"><path d="M305.994 417.769c-30.85 0-55.887 25.037-55.887 55.887s25.038 55.887 55.887 55.887 55.887-25.037 55.887-55.887-25.038-55.887-55.887-55.887zm299.442-195.4C530.697 133.434 421.549 82.446 305.994 82.446S81.309 133.434 6.551 222.369c-9.93 11.811-8.402 29.434 3.428 39.363 5.234 4.396 11.587 6.558 17.939 6.558 7.973 0 15.891-3.391 21.423-9.967 64.084-76.248 157.639-119.989 256.652-119.989 99.013 0 192.568 43.741 256.651 119.971 5.533 6.576 13.45 9.967 21.424 9.967 6.353 0 12.724-2.143 17.958-6.558 11.811-9.912 13.34-27.553 3.41-39.345zM305.994 194.22c-82.545 0-160.489 36.419-213.879 99.926-9.929 11.811-8.402 29.434 3.428 39.363a27.833 27.833 0 0 0 17.958 6.558c7.973 0 15.891-3.391 21.405-9.967 42.716-50.838 105.086-79.993 171.089-79.993s128.372 29.155 171.107 79.993c5.533 6.595 13.45 9.967 21.404 9.967 6.353 0 12.724-2.143 17.959-6.558 11.829-9.929 13.356-27.57 3.428-39.363-53.41-63.506-131.354-99.926-213.899-99.926zm0 111.774c-49.553 0-96.331 21.852-128.335 59.948-9.93 11.811-8.402 29.434 3.428 39.363a27.832 27.832 0 0 0 17.958 6.557c7.973 0 15.891-3.39 21.405-9.966 21.368-25.429 52.552-40.016 85.544-40.016s64.177 14.587 85.544 40.016c5.533 6.595 13.45 9.966 21.405 9.966 6.353 0 12.724-2.142 17.958-6.557 11.83-9.93 13.357-27.553 3.428-39.363-32.005-38.096-78.783-59.948-128.335-59.948z"/></svg>